<?xml version="1.0" encoding="UTF-8" standalone="no"?>
<!DOCTYPE svg PUBLIC "-//W3C//DTD SVG 1.1//EN"
 "http://www.w3.org/Graphics/SVG/1.1/DTD/svg11.dtd">
<!-- Generated by graphviz version 2.47.0 (20210316.0004)
 -->
<!-- Title: dependencies Pages: 1 -->
<svg width="6363pt" height="284pt"
 viewBox="0.00 0.00 6363.00 284.00" xmlns="http://www.w3.org/2000/svg" xmlns:xlink="http://www.w3.org/1999/xlink">
<g id="graph0" class="graph" transform="scale(1 1) rotate(0) translate(4 280)">
<title>dependencies</title>
<polygon fill="white" stroke="transparent" points="-4,4 -4,-280 6359,-280 6359,4 -4,4"/>
<text text-anchor="start" x="3156.51" y="-42.4" font-family="Times-12" font-weight="bold" font-size="14.00">Legend</text>
<polygon fill="#ffffb3" stroke="transparent" points="2943.5,-10 2943.5,-30 2963.5,-30 2963.5,-10 2943.5,-10"/>
<text text-anchor="start" x="2967.13" y="-15.4" font-family="Times-12" font-size="14.00"> &#160;Declarations</text>
<polygon fill="#8dd3c7" stroke="transparent" points="3056.5,-10 3056.5,-30 3076.5,-30 3076.5,-10 3056.5,-10"/>
<text text-anchor="start" x="3080.23" y="-15.4" font-family="Times-12" font-size="14.00"> &#160;Module</text>
<polygon fill="#80b1d3" stroke="transparent" points="3142.5,-10 3142.5,-30 3162.5,-30 3162.5,-10 3142.5,-10"/>
<text text-anchor="start" x="3166.28" y="-15.4" font-family="Times-12" font-size="14.00"> &#160;Bootstrap</text>
<polygon fill="#fdb462" stroke="transparent" points="3239.5,-10 3239.5,-30 3259.5,-30 3259.5,-10 3239.5,-10"/>
<text text-anchor="start" x="3263.17" y="-15.4" font-family="Times-12" font-size="14.00"> &#160;Providers</text>
<polygon fill="#fb8072" stroke="transparent" points="3335.5,-10 3335.5,-30 3355.5,-30 3355.5,-10 3335.5,-10"/>
<text text-anchor="start" x="3359.23" y="-15.4" font-family="Times-12" font-size="14.00"> &#160;Exports</text>
<g id="clust1" class="cluster">
<title>cluster_ApiDirectiveModule</title>
<polygon fill="none" stroke="black" stroke-dasharray="1,5" points="8,-70 8,-268 6347,-268 6347,-70 8,-70"/>
</g>
<g id="clust34" class="cluster">
<title>cluster_ApiDirectiveModule_exports</title>
<polygon fill="none" stroke="black" points="16,-208 16,-260 6339,-260 6339,-208 16,-208"/>
</g>
<g id="clust2" class="cluster">
<title>cluster_ApiDirectiveModule_declarations</title>
<polygon fill="none" stroke="black" points="81,-78 81,-130 6300,-130 6300,-78 81,-78"/>
</g>
<!-- ActivitiesPanelBroadcastingActivityDirective -->
<g id="node1" class="node">
<title>ActivitiesPanelBroadcastingActivityDirective</title>
<polygon fill="#ffffb3" stroke="black" points="6291.87,-122 6018.13,-122 6018.13,-86 6291.87,-86 6291.87,-122"/>
<text text-anchor="middle" x="6155" y="-99.8" font-family="Times,serif" font-size="14.00">ActivitiesPanelBroadcastingActivityDirective</text>
</g>
<!-- ApiDirectiveModule -->
<g id="node31" class="node">
<title>ApiDirectiveModule</title>
<polygon fill="#8dd3c7" stroke="black" points="3365.13,-187 3362.13,-191 3341.13,-191 3338.13,-187 3232.87,-187 3232.87,-151 3365.13,-151 3365.13,-187"/>
<text text-anchor="middle" x="3299" y="-164.8" font-family="Times,serif" font-size="14.00">ApiDirectiveModule</text>
</g>
<!-- ActivitiesPanelBroadcastingActivityDirective&#45;&gt;ApiDirectiveModule -->
<g id="edge1" class="edge">
<title>ActivitiesPanelBroadcastingActivityDirective&#45;&gt;ApiDirectiveModule</title>
<path fill="none" stroke="black" d="M6027.49,-122.11C6027.49,-141.34 6027.49,-169 6027.49,-169 6027.49,-169 3375.43,-169 3375.43,-169"/>
<polygon fill="black" stroke="black" points="3375.43,-165.5 3365.43,-169 3375.43,-172.5 3375.43,-165.5"/>
</g>
<!-- ActivitiesPanelRecordingActivityDirective -->
<g id="node2" class="node">
<title>ActivitiesPanelRecordingActivityDirective</title>
<polygon fill="#ffffb3" stroke="black" points="5999.82,-122 5742.18,-122 5742.18,-86 5999.82,-86 5999.82,-122"/>
<text text-anchor="middle" x="5871" y="-99.8" font-family="Times,serif" font-size="14.00">ActivitiesPanelRecordingActivityDirective</text>
</g>
<!-- ActivitiesPanelRecordingActivityDirective&#45;&gt;ApiDirectiveModule -->
<g id="edge2" class="edge">
<title>ActivitiesPanelRecordingActivityDirective&#45;&gt;ApiDirectiveModule</title>
<path fill="none" stroke="black" d="M5749.52,-122.17C5749.52,-141.09 5749.52,-168 5749.52,-168 5749.52,-168 3375.18,-168 3375.18,-168"/>
<polygon fill="black" stroke="black" points="3375.18,-164.5 3365.18,-168 3375.18,-171.5 3375.18,-164.5"/>
</g>
<!-- AdminLoginDirective -->
<g id="node3" class="node">
<title>AdminLoginDirective</title>
<polygon fill="#ffffb3" stroke="black" points="5724.41,-122 5583.59,-122 5583.59,-86 5724.41,-86 5724.41,-122"/>
<text text-anchor="middle" x="5654" y="-99.8" font-family="Times,serif" font-size="14.00">AdminLoginDirective</text>
</g>
<!-- AdminLoginDirective&#45;&gt;ApiDirectiveModule -->
<g id="edge3" class="edge">
<title>AdminLoginDirective&#45;&gt;ApiDirectiveModule</title>
<path fill="none" stroke="black" d="M5589.4,-122.27C5589.4,-140.56 5589.4,-166 5589.4,-166 5589.4,-166 3375.38,-166 3375.38,-166"/>
<polygon fill="black" stroke="black" points="3375.38,-162.5 3365.38,-166 3375.38,-169.5 3375.38,-162.5"/>
</g>
<!-- AdminRecordingsListDirective -->
<g id="node4" class="node">
<title>AdminRecordingsListDirective</title>
<polygon fill="#ffffb3" stroke="black" points="5566.01,-122 5373.99,-122 5373.99,-86 5566.01,-86 5566.01,-122"/>
<text text-anchor="middle" x="5470" y="-99.8" font-family="Times,serif" font-size="14.00">AdminRecordingsListDirective</text>
</g>
<!-- AdminRecordingsListDirective&#45;&gt;ApiDirectiveModule -->
<g id="edge4" class="edge">
<title>AdminRecordingsListDirective&#45;&gt;ApiDirectiveModule</title>
<path fill="none" stroke="black" d="M5377.49,-122.3C5377.49,-140.27 5377.49,-165 5377.49,-165 5377.49,-165 3375.22,-165 3375.22,-165"/>
<polygon fill="black" stroke="black" points="3375.22,-161.5 3365.22,-165 3375.22,-168.5 3375.22,-161.5"/>
</g>
<!-- AudioEnabledDirective -->
<g id="node5" class="node">
<title>AudioEnabledDirective</title>
<polygon fill="#ffffb3" stroke="black" points="5355.45,-122 5206.55,-122 5206.55,-86 5355.45,-86 5355.45,-122"/>
<text text-anchor="middle" x="5281" y="-99.8" font-family="Times,serif" font-size="14.00">AudioEnabledDirective</text>
</g>
<!-- AudioEnabledDirective&#45;&gt;ApiDirectiveModule -->
<g id="edge5" class="edge">
<title>AudioEnabledDirective&#45;&gt;ApiDirectiveModule</title>
<path fill="none" stroke="black" d="M5219.97,-122C5219.97,-139.68 5219.97,-164 5219.97,-164 5219.97,-164 3375.4,-164 3375.4,-164"/>
<polygon fill="black" stroke="black" points="3375.4,-160.5 3365.4,-164 3375.4,-167.5 3375.4,-160.5"/>
</g>
<!-- LangDirective -->
<g id="node6" class="node">
<title>LangDirective</title>
<polygon fill="#ffffb3" stroke="black" points="5188.35,-122 5091.65,-122 5091.65,-86 5188.35,-86 5188.35,-122"/>
<text text-anchor="middle" x="5140" y="-99.8" font-family="Times,serif" font-size="14.00">LangDirective</text>
</g>
<!-- LangDirective&#45;&gt;ApiDirectiveModule -->
<g id="edge6" class="edge">
<title>LangDirective&#45;&gt;ApiDirectiveModule</title>
<path fill="none" stroke="black" d="M5101.58,-122.02C5101.58,-139.37 5101.58,-163 5101.58,-163 5101.58,-163 3375.29,-163 3375.29,-163"/>
<polygon fill="black" stroke="black" points="3375.29,-159.5 3365.29,-163 3375.29,-166.5 3375.29,-159.5"/>
</g>
<!-- LangOptionsDirective -->
<g id="node7" class="node">
<title>LangOptionsDirective</title>
<polygon fill="#ffffb3" stroke="black" points="5073.68,-122 4932.32,-122 4932.32,-86 5073.68,-86 5073.68,-122"/>
<text text-anchor="middle" x="5003" y="-99.8" font-family="Times,serif" font-size="14.00">LangOptionsDirective</text>
</g>
<!-- LangOptionsDirective&#45;&gt;ApiDirectiveModule -->
<g id="edge7" class="edge">
<title>LangOptionsDirective&#45;&gt;ApiDirectiveModule</title>
<path fill="none" stroke="black" d="M4940.03,-122.04C4940.03,-138.73 4940.03,-161 4940.03,-161 4940.03,-161 3375.36,-161 3375.36,-161"/>
<polygon fill="black" stroke="black" points="3375.36,-157.5 3365.36,-161 3375.36,-164.5 3375.36,-157.5"/>
</g>
<!-- LivekitUrlDirective -->
<g id="node8" class="node">
<title>LivekitUrlDirective</title>
<polygon fill="#ffffb3" stroke="black" points="4914.68,-122 4787.32,-122 4787.32,-86 4914.68,-86 4914.68,-122"/>
<text text-anchor="middle" x="4851" y="-99.8" font-family="Times,serif" font-size="14.00">LivekitUrlDirective</text>
</g>
<!-- LivekitUrlDirective&#45;&gt;ApiDirectiveModule -->
<g id="edge8" class="edge">
<title>LivekitUrlDirective&#45;&gt;ApiDirectiveModule</title>
<path fill="none" stroke="black" d="M4793.04,-122.03C4793.04,-138.4 4793.04,-160 4793.04,-160 4793.04,-160 3375.61,-160 3375.61,-160"/>
<polygon fill="black" stroke="black" points="3375.61,-156.5 3365.61,-160 3375.61,-163.5 3375.61,-156.5"/>
</g>
<!-- MinimalDirective -->
<g id="node9" class="node">
<title>MinimalDirective</title>
<polygon fill="#ffffb3" stroke="black" points="4769.3,-122 4652.7,-122 4652.7,-86 4769.3,-86 4769.3,-122"/>
<text text-anchor="middle" x="4711" y="-99.8" font-family="Times,serif" font-size="14.00">MinimalDirective</text>
</g>
<!-- MinimalDirective&#45;&gt;ApiDirectiveModule -->
<g id="edge9" class="edge">
<title>MinimalDirective&#45;&gt;ApiDirectiveModule</title>
<path fill="none" stroke="black" d="M4656.97,-122.01C4656.97,-138.05 4656.97,-159 4656.97,-159 4656.97,-159 3375.42,-159 3375.42,-159"/>
<polygon fill="black" stroke="black" points="3375.42,-155.5 3365.42,-159 3375.42,-162.5 3375.42,-155.5"/>
</g>
<!-- ParticipantNameDirective -->
<g id="node10" class="node">
<title>ParticipantNameDirective</title>
<polygon fill="#ffffb3" stroke="black" points="4635.16,-122 4472.84,-122 4472.84,-86 4635.16,-86 4635.16,-122"/>
<text text-anchor="middle" x="4554" y="-99.8" font-family="Times,serif" font-size="14.00">ParticipantNameDirective</text>
</g>
<!-- ParticipantNameDirective&#45;&gt;ApiDirectiveModule -->
<g id="edge10" class="edge">
<title>ParticipantNameDirective&#45;&gt;ApiDirectiveModule</title>
<path fill="none" stroke="black" d="M4582.44,-122.28C4582.44,-137.95 4582.44,-158 4582.44,-158 4582.44,-158 3375.3,-158 3375.3,-158"/>
<polygon fill="black" stroke="black" points="3375.3,-154.5 3365.3,-158 3375.3,-161.5 3375.3,-154.5"/>
</g>
<!-- ParticipantPanelItemMuteButtonDirective -->
<g id="node11" class="node">
<title>ParticipantPanelItemMuteButtonDirective</title>
<polygon fill="#ffffb3" stroke="black" points="4454.66,-122 4201.34,-122 4201.34,-86 4454.66,-86 4454.66,-122"/>
<text text-anchor="middle" x="4328" y="-99.8" font-family="Times,serif" font-size="14.00">ParticipantPanelItemMuteButtonDirective</text>
</g>
<!-- ParticipantPanelItemMuteButtonDirective&#45;&gt;ApiDirectiveModule -->
<g id="edge11" class="edge">
<title>ParticipantPanelItemMuteButtonDirective&#45;&gt;ApiDirectiveModule</title>
<path fill="none" stroke="black" d="M4370.61,-122.19C4370.61,-137.18 4370.61,-156 4370.61,-156 4370.61,-156 3375.23,-156 3375.23,-156"/>
<polygon fill="black" stroke="black" points="3375.23,-152.5 3365.23,-156 3375.23,-159.5 3375.23,-152.5"/>
</g>
<!-- PrejoinDirective -->
<g id="node12" class="node">
<title>PrejoinDirective</title>
<polygon fill="#ffffb3" stroke="black" points="4183.02,-122 4074.98,-122 4074.98,-86 4183.02,-86 4183.02,-122"/>
<text text-anchor="middle" x="4129" y="-99.8" font-family="Times,serif" font-size="14.00">PrejoinDirective</text>
</g>
<!-- PrejoinDirective&#45;&gt;ApiDirectiveModule -->
<g id="edge12" class="edge">
<title>PrejoinDirective&#45;&gt;ApiDirectiveModule</title>
<path fill="none" stroke="black" d="M4147.09,-122.12C4147.09,-136.78 4147.09,-155 4147.09,-155 4147.09,-155 3375.19,-155 3375.19,-155"/>
<polygon fill="black" stroke="black" points="3375.19,-151.5 3365.19,-155 3375.19,-158.5 3375.19,-151.5"/>
</g>
<!-- StreamDisplayAudioDetectionDirective -->
<g id="node13" class="node">
<title>StreamDisplayAudioDetectionDirective</title>
<polygon fill="#ffffb3" stroke="black" points="4056.2,-122 3815.8,-122 3815.8,-86 4056.2,-86 4056.2,-122"/>
<text text-anchor="middle" x="3936" y="-99.8" font-family="Times,serif" font-size="14.00">StreamDisplayAudioDetectionDirective</text>
</g>
<!-- StreamDisplayAudioDetectionDirective&#45;&gt;ApiDirectiveModule -->
<g id="edge13" class="edge">
<title>StreamDisplayAudioDetectionDirective&#45;&gt;ApiDirectiveModule</title>
<path fill="none" stroke="black" d="M3895.47,-122.05C3895.47,-136.37 3895.47,-154 3895.47,-154 3895.47,-154 3375.4,-154 3375.4,-154"/>
<polygon fill="black" stroke="black" points="3375.4,-150.5 3365.4,-154 3375.4,-157.5 3375.4,-150.5"/>
</g>
<!-- StreamDisplayParticipantNameDirective -->
<g id="node14" class="node">
<title>StreamDisplayParticipantNameDirective</title>
<polygon fill="#ffffb3" stroke="black" points="3797.86,-122 3552.14,-122 3552.14,-86 3797.86,-86 3797.86,-122"/>
<text text-anchor="middle" x="3675" y="-99.8" font-family="Times,serif" font-size="14.00">StreamDisplayParticipantNameDirective</text>
</g>
<!-- StreamDisplayParticipantNameDirective&#45;&gt;ApiDirectiveModule -->
<g id="edge14" class="edge">
<title>StreamDisplayParticipantNameDirective&#45;&gt;ApiDirectiveModule</title>
<path fill="none" stroke="black" d="M3672.38,-122.25C3672.38,-136.18 3672.38,-153 3672.38,-153 3672.38,-153 3375.32,-153 3375.32,-153"/>
<polygon fill="black" stroke="black" points="3375.32,-149.5 3365.32,-153 3375.32,-156.5 3375.32,-149.5"/>
</g>
<!-- StreamVideoControlsDirective -->
<g id="node15" class="node">
<title>StreamVideoControlsDirective</title>
<polygon fill="#ffffb3" stroke="black" points="3534.17,-122 3343.83,-122 3343.83,-86 3534.17,-86 3534.17,-122"/>
<text text-anchor="middle" x="3439" y="-99.8" font-family="Times,serif" font-size="14.00">StreamVideoControlsDirective</text>
</g>
<!-- StreamVideoControlsDirective&#45;&gt;ApiDirectiveModule -->
<g id="edge15" class="edge">
<title>StreamVideoControlsDirective&#45;&gt;ApiDirectiveModule</title>
<path fill="none" stroke="black" d="M3354.61,-122.11C3354.61,-122.11 3354.61,-140.99 3354.61,-140.99"/>
<polygon fill="black" stroke="black" points="3351.11,-140.99 3354.61,-150.99 3358.11,-140.99 3351.11,-140.99"/>
</g>
<!-- TokenDirective -->
<g id="node16" class="node">
<title>TokenDirective</title>
<polygon fill="#ffffb3" stroke="black" points="3325.85,-122 3222.15,-122 3222.15,-86 3325.85,-86 3325.85,-122"/>
<text text-anchor="middle" x="3274" y="-99.8" font-family="Times,serif" font-size="14.00">TokenDirective</text>
</g>
<!-- TokenDirective&#45;&gt;ApiDirectiveModule -->
<g id="edge16" class="edge">
<title>TokenDirective&#45;&gt;ApiDirectiveModule</title>
<path fill="none" stroke="black" d="M3279.31,-122.11C3279.31,-122.11 3279.31,-140.99 3279.31,-140.99"/>
<polygon fill="black" stroke="black" points="3275.81,-140.99 3279.31,-150.99 3282.81,-140.99 3275.81,-140.99"/>
</g>
<!-- TokenErrorDirective -->
<g id="node17" class="node">
<title>TokenErrorDirective</title>
<polygon fill="#ffffb3" stroke="black" points="3203.88,-122 3070.12,-122 3070.12,-86 3203.88,-86 3203.88,-122"/>
<text text-anchor="middle" x="3137" y="-99.8" font-family="Times,serif" font-size="14.00">TokenErrorDirective</text>
</g>
<!-- TokenErrorDirective&#45;&gt;ApiDirectiveModule -->
<g id="edge17" class="edge">
<title>TokenErrorDirective&#45;&gt;ApiDirectiveModule</title>
<path fill="none" stroke="black" d="M3196.07,-122.25C3196.07,-136.18 3196.07,-153 3196.07,-153 3196.07,-153 3222.65,-153 3222.65,-153"/>
<polygon fill="black" stroke="black" points="3222.65,-156.5 3232.65,-153 3222.65,-149.5 3222.65,-156.5"/>
</g>
<!-- ToolbarActivitiesPanelButtonDirective -->
<g id="node18" class="node">
<title>ToolbarActivitiesPanelButtonDirective</title>
<polygon fill="#ffffb3" stroke="black" points="3052.05,-122 2815.95,-122 2815.95,-86 3052.05,-86 3052.05,-122"/>
<text text-anchor="middle" x="2934" y="-99.8" font-family="Times,serif" font-size="14.00">ToolbarActivitiesPanelButtonDirective</text>
</g>
<!-- ToolbarActivitiesPanelButtonDirective&#45;&gt;ApiDirectiveModule -->
<g id="edge18" class="edge">
<title>ToolbarActivitiesPanelButtonDirective&#45;&gt;ApiDirectiveModule</title>
<path fill="none" stroke="black" d="M3042.67,-122.05C3042.67,-136.37 3042.67,-154 3042.67,-154 3042.67,-154 3222.65,-154 3222.65,-154"/>
<polygon fill="black" stroke="black" points="3222.65,-157.5 3232.65,-154 3222.65,-150.5 3222.65,-157.5"/>
</g>
<!-- ToolbarBackgroundEffectsButtonDirective -->
<g id="node19" class="node">
<title>ToolbarBackgroundEffectsButtonDirective</title>
<polygon fill="#ffffb3" stroke="black" points="2798.08,-122 2539.92,-122 2539.92,-86 2798.08,-86 2798.08,-122"/>
<text text-anchor="middle" x="2669" y="-99.8" font-family="Times,serif" font-size="14.00">ToolbarBackgroundEffectsButtonDirective</text>
</g>
<!-- ToolbarBackgroundEffectsButtonDirective&#45;&gt;ApiDirectiveModule -->
<g id="edge19" class="edge">
<title>ToolbarBackgroundEffectsButtonDirective&#45;&gt;ApiDirectiveModule</title>
<path fill="none" stroke="black" d="M2785.13,-122.12C2785.13,-136.78 2785.13,-155 2785.13,-155 2785.13,-155 3222.61,-155 3222.61,-155"/>
<polygon fill="black" stroke="black" points="3222.61,-158.5 3232.61,-155 3222.61,-151.5 3222.61,-158.5"/>
</g>
<!-- ToolbarBroadcastingButtonDirective -->
<g id="node20" class="node">
<title>ToolbarBroadcastingButtonDirective</title>
<polygon fill="#ffffb3" stroke="black" points="2522.39,-122 2297.61,-122 2297.61,-86 2522.39,-86 2522.39,-122"/>
<text text-anchor="middle" x="2410" y="-99.8" font-family="Times,serif" font-size="14.00">ToolbarBroadcastingButtonDirective</text>
</g>
<!-- ToolbarBroadcastingButtonDirective&#45;&gt;ApiDirectiveModule -->
<g id="edge20" class="edge">
<title>ToolbarBroadcastingButtonDirective&#45;&gt;ApiDirectiveModule</title>
<path fill="none" stroke="black" d="M2518.08,-122.19C2518.08,-137.18 2518.08,-156 2518.08,-156 2518.08,-156 3222.76,-156 3222.76,-156"/>
<polygon fill="black" stroke="black" points="3222.76,-159.5 3232.76,-156 3222.76,-152.5 3222.76,-159.5"/>
</g>
<!-- ToolbarChatPanelButtonDirective -->
<g id="node21" class="node">
<title>ToolbarChatPanelButtonDirective</title>
<polygon fill="#ffffb3" stroke="black" points="2280.06,-122 2071.94,-122 2071.94,-86 2280.06,-86 2280.06,-122"/>
<text text-anchor="middle" x="2176" y="-99.8" font-family="Times,serif" font-size="14.00">ToolbarChatPanelButtonDirective</text>
</g>
<!-- ToolbarChatPanelButtonDirective&#45;&gt;ApiDirectiveModule -->
<g id="edge21" class="edge">
<title>ToolbarChatPanelButtonDirective&#45;&gt;ApiDirectiveModule</title>
<path fill="none" stroke="black" d="M2274.04,-122.28C2274.04,-137.95 2274.04,-158 2274.04,-158 2274.04,-158 3222.54,-158 3222.54,-158"/>
<polygon fill="black" stroke="black" points="3222.54,-161.5 3232.54,-158 3222.54,-154.5 3222.54,-161.5"/>
</g>
<!-- ToolbarDisplayLogoDirective -->
<g id="node22" class="node">
<title>ToolbarDisplayLogoDirective</title>
<polygon fill="#ffffb3" stroke="black" points="2053.5,-122 1868.5,-122 1868.5,-86 2053.5,-86 2053.5,-122"/>
<text text-anchor="middle" x="1961" y="-99.8" font-family="Times,serif" font-size="14.00">ToolbarDisplayLogoDirective</text>
</g>
<!-- ToolbarDisplayLogoDirective&#45;&gt;ApiDirectiveModule -->
<g id="edge22" class="edge">
<title>ToolbarDisplayLogoDirective&#45;&gt;ApiDirectiveModule</title>
<path fill="none" stroke="black" d="M2045.98,-122.01C2045.98,-138.05 2045.98,-159 2045.98,-159 2045.98,-159 3222.52,-159 3222.52,-159"/>
<polygon fill="black" stroke="black" points="3222.52,-162.5 3232.52,-159 3222.52,-155.5 3222.52,-162.5"/>
</g>
<!-- ToolbarDisplayRoomNameDirective -->
<g id="node23" class="node">
<title>ToolbarDisplayRoomNameDirective</title>
<polygon fill="#ffffb3" stroke="black" points="1849.6,-122 1626.4,-122 1626.4,-86 1849.6,-86 1849.6,-122"/>
<text text-anchor="middle" x="1738" y="-99.8" font-family="Times,serif" font-size="14.00">ToolbarDisplayRoomNameDirective</text>
</g>
<!-- ToolbarDisplayRoomNameDirective&#45;&gt;ApiDirectiveModule -->
<g id="edge23" class="edge">
<title>ToolbarDisplayRoomNameDirective&#45;&gt;ApiDirectiveModule</title>
<path fill="none" stroke="black" d="M1840.65,-122.03C1840.65,-138.4 1840.65,-160 1840.65,-160 1840.65,-160 3222.55,-160 3222.55,-160"/>
<polygon fill="black" stroke="black" points="3222.55,-163.5 3232.55,-160 3222.55,-156.5 3222.55,-163.5"/>
</g>
<!-- ToolbarFullscreenButtonDirective -->
<g id="node24" class="node">
<title>ToolbarFullscreenButtonDirective</title>
<polygon fill="#ffffb3" stroke="black" points="1608.33,-122 1399.67,-122 1399.67,-86 1608.33,-86 1608.33,-122"/>
<text text-anchor="middle" x="1504" y="-99.8" font-family="Times,serif" font-size="14.00">ToolbarFullscreenButtonDirective</text>
</g>
<!-- ToolbarFullscreenButtonDirective&#45;&gt;ApiDirectiveModule -->
<g id="edge24" class="edge">
<title>ToolbarFullscreenButtonDirective&#45;&gt;ApiDirectiveModule</title>
<path fill="none" stroke="black" d="M1597.43,-122.04C1597.43,-138.73 1597.43,-161 1597.43,-161 1597.43,-161 3222.82,-161 3222.82,-161"/>
<polygon fill="black" stroke="black" points="3222.82,-164.5 3232.82,-161 3222.82,-157.5 3222.82,-164.5"/>
</g>
<!-- ToolbarLeaveButtonDirective -->
<g id="node25" class="node">
<title>ToolbarLeaveButtonDirective</title>
<polygon fill="#ffffb3" stroke="black" points="1381.22,-122 1196.78,-122 1196.78,-86 1381.22,-86 1381.22,-122"/>
<text text-anchor="middle" x="1289" y="-99.8" font-family="Times,serif" font-size="14.00">ToolbarLeaveButtonDirective</text>
</g>
<!-- ToolbarLeaveButtonDirective&#45;&gt;ApiDirectiveModule -->
<g id="edge25" class="edge">
<title>ToolbarLeaveButtonDirective&#45;&gt;ApiDirectiveModule</title>
<path fill="none" stroke="black" d="M1368.6,-122.02C1368.6,-139.37 1368.6,-163 1368.6,-163 1368.6,-163 3222.83,-163 3222.83,-163"/>
<polygon fill="black" stroke="black" points="3222.83,-166.5 3232.83,-163 3222.83,-159.5 3222.83,-166.5"/>
</g>
<!-- ToolbarParticipantsPanelButtonDirective -->
<g id="node26" class="node">
<title>ToolbarParticipantsPanelButtonDirective</title>
<polygon fill="#ffffb3" stroke="black" points="1178.72,-122 931.28,-122 931.28,-86 1178.72,-86 1178.72,-122"/>
<text text-anchor="middle" x="1055" y="-99.8" font-family="Times,serif" font-size="14.00">ToolbarParticipantsPanelButtonDirective</text>
</g>
<!-- ToolbarParticipantsPanelButtonDirective&#45;&gt;ApiDirectiveModule -->
<g id="edge26" class="edge">
<title>ToolbarParticipantsPanelButtonDirective&#45;&gt;ApiDirectiveModule</title>
<path fill="none" stroke="black" d="M1164.38,-122C1164.38,-139.68 1164.38,-164 1164.38,-164 1164.38,-164 3222.77,-164 3222.77,-164"/>
<polygon fill="black" stroke="black" points="3222.77,-167.5 3232.77,-164 3222.77,-160.5 3222.77,-167.5"/>
</g>
<!-- ToolbarRecordingButtonDirective -->
<g id="node27" class="node">
<title>ToolbarRecordingButtonDirective</title>
<polygon fill="#ffffb3" stroke="black" points="913.34,-122 704.66,-122 704.66,-86 913.34,-86 913.34,-122"/>
<text text-anchor="middle" x="809" y="-99.8" font-family="Times,serif" font-size="14.00">ToolbarRecordingButtonDirective</text>
</g>
<!-- ToolbarRecordingButtonDirective&#45;&gt;ApiDirectiveModule -->
<g id="edge27" class="edge">
<title>ToolbarRecordingButtonDirective&#45;&gt;ApiDirectiveModule</title>
<path fill="none" stroke="black" d="M896.91,-122.3C896.91,-140.27 896.91,-165 896.91,-165 896.91,-165 3222.56,-165 3222.56,-165"/>
<polygon fill="black" stroke="black" points="3222.56,-168.5 3232.56,-165 3222.56,-161.5 3222.56,-168.5"/>
</g>
<!-- ToolbarScreenshareButtonDirective -->
<g id="node28" class="node">
<title>ToolbarScreenshareButtonDirective</title>
<polygon fill="#ffffb3" stroke="black" points="687.14,-122 468.86,-122 468.86,-86 687.14,-86 687.14,-122"/>
<text text-anchor="middle" x="578" y="-99.8" font-family="Times,serif" font-size="14.00">ToolbarScreenshareButtonDirective</text>
</g>
<!-- ToolbarScreenshareButtonDirective&#45;&gt;ApiDirectiveModule -->
<g id="edge28" class="edge">
<title>ToolbarScreenshareButtonDirective&#45;&gt;ApiDirectiveModule</title>
<path fill="none" stroke="black" d="M668.45,-122.27C668.45,-140.56 668.45,-166 668.45,-166 668.45,-166 3222.66,-166 3222.66,-166"/>
<polygon fill="black" stroke="black" points="3222.66,-169.5 3232.66,-166 3222.66,-162.5 3222.66,-169.5"/>
</g>
<!-- ToolbarSettingsButtonDirective -->
<g id="node29" class="node">
<title>ToolbarSettingsButtonDirective</title>
<polygon fill="#ffffb3" stroke="black" points="450.63,-122 255.37,-122 255.37,-86 450.63,-86 450.63,-122"/>
<text text-anchor="middle" x="353" y="-99.8" font-family="Times,serif" font-size="14.00">ToolbarSettingsButtonDirective</text>
</g>
<!-- ToolbarSettingsButtonDirective&#45;&gt;ApiDirectiveModule -->
<g id="edge29" class="edge">
<title>ToolbarSettingsButtonDirective&#45;&gt;ApiDirectiveModule</title>
<path fill="none" stroke="black" d="M430.5,-122.17C430.5,-141.09 430.5,-168 430.5,-168 430.5,-168 3222.66,-168 3222.66,-168"/>
<polygon fill="black" stroke="black" points="3222.66,-171.5 3232.66,-168 3222.66,-164.5 3222.66,-171.5"/>
</g>
<!-- VideoEnabledDirective -->
<g id="node30" class="node">
<title>VideoEnabledDirective</title>
<polygon fill="#ffffb3" stroke="black" points="237.17,-122 88.83,-122 88.83,-86 237.17,-86 237.17,-122"/>
<text text-anchor="middle" x="163" y="-99.8" font-family="Times,serif" font-size="14.00">VideoEnabledDirective</text>
</g>
<!-- VideoEnabledDirective&#45;&gt;ApiDirectiveModule -->
<g id="edge30" class="edge">
<title>VideoEnabledDirective&#45;&gt;ApiDirectiveModule</title>
<path fill="none" stroke="black" d="M215.26,-122.11C215.26,-141.34 215.26,-169 215.26,-169 215.26,-169 3222.81,-169 3222.81,-169"/>
<polygon fill="black" stroke="black" points="3222.81,-172.5 3232.81,-169 3222.81,-165.5 3222.81,-172.5"/>
</g>
<!-- ActivitiesPanelBroadcastingActivityDirective  -->
<g id="node32" class="node">
<title>ActivitiesPanelBroadcastingActivityDirective </title>
<polygon fill="#fb8072" stroke="black" points="6331.37,-252 6054.63,-252 6054.63,-216 6331.37,-216 6331.37,-252"/>
<text text-anchor="middle" x="6193" y="-229.8" font-family="Times,serif" font-size="14.00">ActivitiesPanelBroadcastingActivityDirective </text>
</g>
<!-- ApiDirectiveModule&#45;&gt;ActivitiesPanelBroadcastingActivityDirective  -->
<g id="edge31" class="edge">
<title>ApiDirectiveModule&#45;&gt;ActivitiesPanelBroadcastingActivityDirective </title>
<path fill="none" stroke="black" stroke-dasharray="5,2" d="M3365.47,-170C3796.08,-170 6173.12,-170 6173.12,-170 6173.12,-170 6173.12,-205.83 6173.12,-205.83"/>
<polygon fill="black" stroke="black" points="6169.63,-205.83 6173.12,-215.83 6176.63,-205.83 6169.63,-205.83"/>
</g>
<!-- ActivitiesPanelRecordingActivityDirective  -->
<g id="node33" class="node">
<title>ActivitiesPanelRecordingActivityDirective </title>
<polygon fill="#fb8072" stroke="black" points="6036.82,-252 5775.18,-252 5775.18,-216 6036.82,-216 6036.82,-252"/>
<text text-anchor="middle" x="5906" y="-229.8" font-family="Times,serif" font-size="14.00">ActivitiesPanelRecordingActivityDirective </text>
</g>
<!-- ApiDirectiveModule&#45;&gt;ActivitiesPanelRecordingActivityDirective  -->
<g id="edge32" class="edge">
<title>ApiDirectiveModule&#45;&gt;ActivitiesPanelRecordingActivityDirective </title>
<path fill="none" stroke="black" stroke-dasharray="5,2" d="M3365.26,-171C3769.63,-171 5887.62,-171 5887.62,-171 5887.62,-171 5887.62,-205.78 5887.62,-205.78"/>
<polygon fill="black" stroke="black" points="5884.13,-205.78 5887.62,-215.78 5891.13,-205.78 5884.13,-205.78"/>
</g>
<!-- AdminLoginDirective  -->
<g id="node34" class="node">
<title>AdminLoginDirective </title>
<polygon fill="#fb8072" stroke="black" points="5756.91,-252 5613.09,-252 5613.09,-216 5756.91,-216 5756.91,-252"/>
<text text-anchor="middle" x="5685" y="-229.8" font-family="Times,serif" font-size="14.00">AdminLoginDirective </text>
</g>
<!-- ApiDirectiveModule&#45;&gt;AdminLoginDirective  -->
<g id="edge33" class="edge">
<title>ApiDirectiveModule&#45;&gt;AdminLoginDirective </title>
<path fill="none" stroke="black" stroke-dasharray="5,2" d="M3365.16,-173C3748.6,-173 5668.62,-173 5668.62,-173 5668.62,-173 5668.62,-205.7 5668.62,-205.7"/>
<polygon fill="black" stroke="black" points="5665.13,-205.7 5668.62,-215.7 5672.13,-205.7 5665.13,-205.7"/>
</g>
<!-- AdminRecordingsListDirective  -->
<g id="node35" class="node">
<title>AdminRecordingsListDirective </title>
<polygon fill="#fb8072" stroke="black" points="5595.01,-252 5398.99,-252 5398.99,-216 5595.01,-216 5595.01,-252"/>
<text text-anchor="middle" x="5497" y="-229.8" font-family="Times,serif" font-size="14.00">AdminRecordingsListDirective </text>
</g>
<!-- ApiDirectiveModule&#45;&gt;AdminRecordingsListDirective  -->
<g id="edge34" class="edge">
<title>ApiDirectiveModule&#45;&gt;AdminRecordingsListDirective </title>
<path fill="none" stroke="black" stroke-dasharray="5,2" d="M3365.24,-174C3730.55,-174 5482.62,-174 5482.62,-174 5482.62,-174 5482.62,-206 5482.62,-206"/>
<polygon fill="black" stroke="black" points="5479.13,-206 5482.62,-216 5486.13,-206 5479.13,-206"/>
</g>
<!-- AudioEnabledDirective  -->
<g id="node36" class="node">
<title>AudioEnabledDirective </title>
<polygon fill="#fb8072" stroke="black" points="5381.45,-252 5228.55,-252 5228.55,-216 5381.45,-216 5381.45,-252"/>
<text text-anchor="middle" x="5305" y="-229.8" font-family="Times,serif" font-size="14.00">AudioEnabledDirective </text>
</g>
<!-- ApiDirectiveModule&#45;&gt;AudioEnabledDirective  -->
<g id="edge35" class="edge">
<title>ApiDirectiveModule&#45;&gt;AudioEnabledDirective </title>
<path fill="none" stroke="black" stroke-dasharray="5,2" d="M3365.31,-175C3711.15,-175 5292.12,-175 5292.12,-175 5292.12,-175 5292.12,-205.98 5292.12,-205.98"/>
<polygon fill="black" stroke="black" points="5288.63,-205.98 5292.12,-215.98 5295.63,-205.98 5288.63,-205.98"/>
</g>
<!-- LangDirective  -->
<g id="node37" class="node">
<title>LangDirective </title>
<polygon fill="#fb8072" stroke="black" points="5211.35,-252 5110.65,-252 5110.65,-216 5211.35,-216 5211.35,-252"/>
<text text-anchor="middle" x="5161" y="-229.8" font-family="Times,serif" font-size="14.00">LangDirective </text>
</g>
<!-- ApiDirectiveModule&#45;&gt;LangDirective  -->
<g id="edge36" class="edge">
<title>ApiDirectiveModule&#45;&gt;LangDirective </title>
<path fill="none" stroke="black" stroke-dasharray="5,2" d="M3365.14,-176C3695.33,-176 5149.62,-176 5149.62,-176 5149.62,-176 5149.62,-205.97 5149.62,-205.97"/>
<polygon fill="black" stroke="black" points="5146.13,-205.97 5149.62,-215.97 5153.13,-205.97 5146.13,-205.97"/>
</g>
<!-- LangOptionsDirective  -->
<g id="node38" class="node">
<title>LangOptionsDirective </title>
<polygon fill="#fb8072" stroke="black" points="5092.18,-252 4947.82,-252 4947.82,-216 5092.18,-216 5092.18,-252"/>
<text text-anchor="middle" x="5020" y="-229.8" font-family="Times,serif" font-size="14.00">LangOptionsDirective </text>
</g>
<!-- ApiDirectiveModule&#45;&gt;LangOptionsDirective  -->
<g id="edge37" class="edge">
<title>ApiDirectiveModule&#45;&gt;LangOptionsDirective </title>
<path fill="none" stroke="black" stroke-dasharray="5,2" d="M3365.31,-178C3680.34,-178 5010.62,-178 5010.62,-178 5010.62,-178 5010.62,-205.97 5010.62,-205.97"/>
<polygon fill="black" stroke="black" points="5007.13,-205.97 5010.62,-215.97 5014.13,-205.97 5007.13,-205.97"/>
</g>
<!-- LivekitUrlDirective  -->
<g id="node39" class="node">
<title>LivekitUrlDirective </title>
<polygon fill="#fb8072" stroke="black" points="4929.18,-252 4798.82,-252 4798.82,-216 4929.18,-216 4929.18,-252"/>
<text text-anchor="middle" x="4864" y="-229.8" font-family="Times,serif" font-size="14.00">LivekitUrlDirective </text>
</g>
<!-- ApiDirectiveModule&#45;&gt;LivekitUrlDirective  -->
<g id="edge38" class="edge">
<title>ApiDirectiveModule&#45;&gt;LivekitUrlDirective </title>
<path fill="none" stroke="black" stroke-dasharray="5,2" d="M3365.43,-179C3662.74,-179 4856.62,-179 4856.62,-179 4856.62,-179 4856.62,-205.99 4856.62,-205.99"/>
<polygon fill="black" stroke="black" points="4853.13,-205.99 4856.62,-215.99 4860.13,-205.99 4853.13,-205.99"/>
</g>
<!-- MinimalDirective  -->
<g id="node40" class="node">
<title>MinimalDirective </title>
<polygon fill="#fb8072" stroke="black" points="4780.8,-252 4661.2,-252 4661.2,-216 4780.8,-216 4780.8,-252"/>
<text text-anchor="middle" x="4721" y="-229.8" font-family="Times,serif" font-size="14.00">MinimalDirective </text>
</g>
<!-- ApiDirectiveModule&#45;&gt;MinimalDirective  -->
<g id="edge39" class="edge">
<title>ApiDirectiveModule&#45;&gt;MinimalDirective </title>
<path fill="none" stroke="black" stroke-dasharray="5,2" d="M3365.4,-180C3645.38,-180 4715.12,-180 4715.12,-180 4715.12,-180 4715.12,-205.72 4715.12,-205.72"/>
<polygon fill="black" stroke="black" points="4711.63,-205.72 4715.12,-215.72 4718.63,-205.72 4711.63,-205.72"/>
</g>
<!-- ParticipantNameDirective  -->
<g id="node41" class="node">
<title>ParticipantNameDirective </title>
<polygon fill="#fb8072" stroke="black" points="4642.66,-252 4477.34,-252 4477.34,-216 4642.66,-216 4642.66,-252"/>
<text text-anchor="middle" x="4560" y="-229.8" font-family="Times,serif" font-size="14.00">ParticipantNameDirective </text>
</g>
<!-- ApiDirectiveModule&#45;&gt;ParticipantNameDirective  -->
<g id="edge40" class="edge">
<title>ApiDirectiveModule&#45;&gt;ParticipantNameDirective </title>
<path fill="none" stroke="black" stroke-dasharray="5,2" d="M3365.17,-181C3620.82,-181 4529.81,-181 4529.81,-181 4529.81,-181 4529.81,-205.76 4529.81,-205.76"/>
<polygon fill="black" stroke="black" points="4526.31,-205.76 4529.81,-215.76 4533.31,-205.76 4526.31,-205.76"/>
</g>
<!-- ParticipantPanelItemMuteButtonDirective  -->
<g id="node42" class="node">
<title>ParticipantPanelItemMuteButtonDirective </title>
<polygon fill="#fb8072" stroke="black" points="4459.16,-252 4202.84,-252 4202.84,-216 4459.16,-216 4459.16,-252"/>
<text text-anchor="middle" x="4331" y="-229.8" font-family="Times,serif" font-size="14.00">ParticipantPanelItemMuteButtonDirective </text>
</g>
<!-- ApiDirectiveModule&#45;&gt;ParticipantPanelItemMuteButtonDirective  -->
<g id="edge41" class="edge">
<title>ApiDirectiveModule&#45;&gt;ParticipantPanelItemMuteButtonDirective </title>
<path fill="none" stroke="black" stroke-dasharray="5,2" d="M3365.34,-183C3586.78,-183 4286.64,-183 4286.64,-183 4286.64,-183 4286.64,-205.88 4286.64,-205.88"/>
<polygon fill="black" stroke="black" points="4283.14,-205.88 4286.64,-215.88 4290.14,-205.88 4283.14,-205.88"/>
</g>
<!-- PrejoinDirective  -->
<g id="node43" class="node">
<title>PrejoinDirective </title>
<polygon fill="#fb8072" stroke="black" points="4185.02,-252 4072.98,-252 4072.98,-216 4185.02,-216 4185.02,-252"/>
<text text-anchor="middle" x="4129" y="-229.8" font-family="Times,serif" font-size="14.00">PrejoinDirective </text>
</g>
<!-- ApiDirectiveModule&#45;&gt;PrejoinDirective  -->
<g id="edge42" class="edge">
<title>ApiDirectiveModule&#45;&gt;PrejoinDirective </title>
<path fill="none" stroke="black" stroke-dasharray="5,2" d="M3365.44,-184C3559.35,-184 4110.91,-184 4110.91,-184 4110.91,-184 4110.91,-205.95 4110.91,-205.95"/>
<polygon fill="black" stroke="black" points="4107.41,-205.95 4110.91,-215.95 4114.41,-205.95 4107.41,-205.95"/>
</g>
<!-- StreamDisplayAudioDetectionDirective  -->
<g id="node44" class="node">
<title>StreamDisplayAudioDetectionDirective </title>
<polygon fill="#fb8072" stroke="black" points="4055.2,-252 3810.8,-252 3810.8,-216 4055.2,-216 4055.2,-252"/>
<text text-anchor="middle" x="3933" y="-229.8" font-family="Times,serif" font-size="14.00">StreamDisplayAudioDetectionDirective </text>
</g>
<!-- ApiDirectiveModule&#45;&gt;StreamDisplayAudioDetectionDirective  -->
<g id="edge43" class="edge">
<title>ApiDirectiveModule&#45;&gt;StreamDisplayAudioDetectionDirective </title>
<path fill="none" stroke="black" stroke-dasharray="5,2" d="M3365.39,-185C3535.78,-185 3975.28,-185 3975.28,-185 3975.28,-185 3975.28,-205.75 3975.28,-205.75"/>
<polygon fill="black" stroke="black" points="3971.78,-205.75 3975.28,-215.75 3978.78,-205.75 3971.78,-205.75"/>
</g>
<!-- StreamDisplayParticipantNameDirective  -->
<g id="node45" class="node">
<title>StreamDisplayParticipantNameDirective </title>
<polygon fill="#fb8072" stroke="black" points="3792.36,-252 3543.64,-252 3543.64,-216 3792.36,-216 3792.36,-252"/>
<text text-anchor="middle" x="3668" y="-229.8" font-family="Times,serif" font-size="14.00">StreamDisplayParticipantNameDirective </text>
</g>
<!-- ApiDirectiveModule&#45;&gt;StreamDisplayParticipantNameDirective  -->
<g id="edge44" class="edge">
<title>ApiDirectiveModule&#45;&gt;StreamDisplayParticipantNameDirective </title>
<path fill="none" stroke="black" stroke-dasharray="5,2" d="M3365.39,-186C3439.13,-186 3547.95,-186 3547.95,-186 3547.95,-186 3547.95,-205.85 3547.95,-205.85"/>
<polygon fill="black" stroke="black" points="3544.45,-205.85 3547.95,-215.85 3551.45,-205.85 3544.45,-205.85"/>
</g>
<!-- StreamVideoControlsDirective  -->
<g id="node46" class="node">
<title>StreamVideoControlsDirective </title>
<polygon fill="#fb8072" stroke="black" points="3525.67,-252 3332.33,-252 3332.33,-216 3525.67,-216 3525.67,-252"/>
<text text-anchor="middle" x="3429" y="-229.8" font-family="Times,serif" font-size="14.00">StreamVideoControlsDirective </text>
</g>
<!-- ApiDirectiveModule&#45;&gt;StreamVideoControlsDirective  -->
<g id="edge45" class="edge">
<title>ApiDirectiveModule&#45;&gt;StreamVideoControlsDirective </title>
<path fill="none" stroke="black" stroke-dasharray="5,2" d="M3348.74,-187.11C3348.74,-187.11 3348.74,-205.99 3348.74,-205.99"/>
<polygon fill="black" stroke="black" points="3345.24,-205.99 3348.74,-215.99 3352.24,-205.99 3345.24,-205.99"/>
</g>
<!-- TokenDirective  -->
<g id="node47" class="node">
<title>TokenDirective </title>
<polygon fill="#fb8072" stroke="black" points="3313.85,-252 3206.15,-252 3206.15,-216 3313.85,-216 3313.85,-252"/>
<text text-anchor="middle" x="3260" y="-229.8" font-family="Times,serif" font-size="14.00">TokenDirective </text>
</g>
<!-- ApiDirectiveModule&#45;&gt;TokenDirective  -->
<g id="edge46" class="edge">
<title>ApiDirectiveModule&#45;&gt;TokenDirective </title>
<path fill="none" stroke="black" stroke-dasharray="5,2" d="M3273.18,-187.11C3273.18,-187.11 3273.18,-205.99 3273.18,-205.99"/>
<polygon fill="black" stroke="black" points="3269.68,-205.99 3273.18,-215.99 3276.68,-205.99 3269.68,-205.99"/>
</g>
<!-- TokenErrorDirective  -->
<g id="node48" class="node">
<title>TokenErrorDirective </title>
<polygon fill="#fb8072" stroke="black" points="3188.38,-252 3051.62,-252 3051.62,-216 3188.38,-216 3188.38,-252"/>
<text text-anchor="middle" x="3120" y="-229.8" font-family="Times,serif" font-size="14.00">TokenErrorDirective </text>
</g>
<!-- ApiDirectiveModule&#45;&gt;TokenErrorDirective  -->
<g id="edge47" class="edge">
<title>ApiDirectiveModule&#45;&gt;TokenErrorDirective </title>
<path fill="none" stroke="black" stroke-dasharray="5,2" d="M3232.45,-186C3184.93,-186 3129.38,-186 3129.38,-186 3129.38,-186 3129.38,-205.85 3129.38,-205.85"/>
<polygon fill="black" stroke="black" points="3125.88,-205.85 3129.38,-215.85 3132.88,-205.85 3125.88,-205.85"/>
</g>
<!-- ToolbarActivitiesPanelButtonDirective  -->
<g id="node49" class="node">
<title>ToolbarActivitiesPanelButtonDirective </title>
<polygon fill="#fb8072" stroke="black" points="3033.56,-252 2794.44,-252 2794.44,-216 3033.56,-216 3033.56,-252"/>
<text text-anchor="middle" x="2914" y="-229.8" font-family="Times,serif" font-size="14.00">ToolbarActivitiesPanelButtonDirective </text>
</g>
<!-- ApiDirectiveModule&#45;&gt;ToolbarActivitiesPanelButtonDirective  -->
<g id="edge48" class="edge">
<title>ApiDirectiveModule&#45;&gt;ToolbarActivitiesPanelButtonDirective </title>
<path fill="none" stroke="black" stroke-dasharray="5,2" d="M3232.55,-185C3125.04,-185 2924.88,-185 2924.88,-185 2924.88,-185 2924.88,-205.75 2924.88,-205.75"/>
<polygon fill="black" stroke="black" points="2921.38,-205.75 2924.88,-215.75 2928.38,-205.75 2921.38,-205.75"/>
</g>
<!-- ToolbarBackgroundEffectsButtonDirective  -->
<g id="node50" class="node">
<title>ToolbarBackgroundEffectsButtonDirective </title>
<polygon fill="#fb8072" stroke="black" points="2776.08,-252 2513.92,-252 2513.92,-216 2776.08,-216 2776.08,-252"/>
<text text-anchor="middle" x="2645" y="-229.8" font-family="Times,serif" font-size="14.00">ToolbarBackgroundEffectsButtonDirective </text>
</g>
<!-- ApiDirectiveModule&#45;&gt;ToolbarBackgroundEffectsButtonDirective  -->
<g id="edge49" class="edge">
<title>ApiDirectiveModule&#45;&gt;ToolbarBackgroundEffectsButtonDirective </title>
<path fill="none" stroke="black" stroke-dasharray="5,2" d="M3232.8,-184C3069,-184 2657.88,-184 2657.88,-184 2657.88,-184 2657.88,-205.95 2657.88,-205.95"/>
<polygon fill="black" stroke="black" points="2654.38,-205.95 2657.88,-215.95 2661.38,-205.95 2654.38,-205.95"/>
</g>
<!-- ToolbarBroadcastingButtonDirective  -->
<g id="node51" class="node">
<title>ToolbarBroadcastingButtonDirective </title>
<polygon fill="#fb8072" stroke="black" points="2495.89,-252 2268.11,-252 2268.11,-216 2495.89,-216 2495.89,-252"/>
<text text-anchor="middle" x="2382" y="-229.8" font-family="Times,serif" font-size="14.00">ToolbarBroadcastingButtonDirective </text>
</g>
<!-- ApiDirectiveModule&#45;&gt;ToolbarBroadcastingButtonDirective  -->
<g id="edge50" class="edge">
<title>ApiDirectiveModule&#45;&gt;ToolbarBroadcastingButtonDirective </title>
<path fill="none" stroke="black" stroke-dasharray="5,2" d="M3232.66,-183C3024.33,-183 2396.88,-183 2396.88,-183 2396.88,-183 2396.88,-205.88 2396.88,-205.88"/>
<polygon fill="black" stroke="black" points="2393.38,-205.88 2396.88,-215.88 2400.38,-205.88 2393.38,-205.88"/>
</g>
<!-- ToolbarChatPanelButtonDirective  -->
<g id="node52" class="node">
<title>ToolbarChatPanelButtonDirective </title>
<polygon fill="#fb8072" stroke="black" points="2249.56,-252 2038.44,-252 2038.44,-216 2249.56,-216 2249.56,-252"/>
<text text-anchor="middle" x="2144" y="-229.8" font-family="Times,serif" font-size="14.00">ToolbarChatPanelButtonDirective </text>
</g>
<!-- ApiDirectiveModule&#45;&gt;ToolbarChatPanelButtonDirective  -->
<g id="edge51" class="edge">
<title>ApiDirectiveModule&#45;&gt;ToolbarChatPanelButtonDirective </title>
<path fill="none" stroke="black" stroke-dasharray="5,2" d="M3232.47,-181C2989.04,-181 2160.88,-181 2160.88,-181 2160.88,-181 2160.88,-205.76 2160.88,-205.76"/>
<polygon fill="black" stroke="black" points="2157.38,-205.76 2160.88,-215.76 2164.38,-205.76 2157.38,-205.76"/>
</g>
<!-- ToolbarDisplayLogoDirective  -->
<g id="node53" class="node">
<title>ToolbarDisplayLogoDirective </title>
<polygon fill="#fb8072" stroke="black" points="2020.5,-252 1831.5,-252 1831.5,-216 2020.5,-216 2020.5,-252"/>
<text text-anchor="middle" x="1926" y="-229.8" font-family="Times,serif" font-size="14.00">ToolbarDisplayLogoDirective </text>
</g>
<!-- ApiDirectiveModule&#45;&gt;ToolbarDisplayLogoDirective  -->
<g id="edge52" class="edge">
<title>ApiDirectiveModule&#45;&gt;ToolbarDisplayLogoDirective </title>
<path fill="none" stroke="black" stroke-dasharray="5,2" d="M3232.75,-180C2960.78,-180 1944.38,-180 1944.38,-180 1944.38,-180 1944.38,-205.72 1944.38,-205.72"/>
<polygon fill="black" stroke="black" points="1940.88,-205.72 1944.38,-215.72 1947.88,-205.72 1940.88,-205.72"/>
</g>
<!-- ToolbarDisplayRoomNameDirective  -->
<g id="node54" class="node">
<title>ToolbarDisplayRoomNameDirective </title>
<polygon fill="#fb8072" stroke="black" points="1813.6,-252 1586.4,-252 1586.4,-216 1813.6,-216 1813.6,-252"/>
<text text-anchor="middle" x="1700" y="-229.8" font-family="Times,serif" font-size="14.00">ToolbarDisplayRoomNameDirective </text>
</g>
<!-- ApiDirectiveModule&#45;&gt;ToolbarDisplayRoomNameDirective  -->
<g id="edge53" class="edge">
<title>ApiDirectiveModule&#45;&gt;ToolbarDisplayRoomNameDirective </title>
<path fill="none" stroke="black" stroke-dasharray="5,2" d="M3232.66,-179C2932.94,-179 1719.88,-179 1719.88,-179 1719.88,-179 1719.88,-205.99 1719.88,-205.99"/>
<polygon fill="black" stroke="black" points="1716.38,-205.99 1719.88,-215.99 1723.38,-205.99 1716.38,-205.99"/>
</g>
<!-- ToolbarFullscreenButtonDirective  -->
<g id="node55" class="node">
<title>ToolbarFullscreenButtonDirective </title>
<polygon fill="#fb8072" stroke="black" points="1568.33,-252 1355.67,-252 1355.67,-216 1568.33,-216 1568.33,-252"/>
<text text-anchor="middle" x="1462" y="-229.8" font-family="Times,serif" font-size="14.00">ToolbarFullscreenButtonDirective </text>
</g>
<!-- ApiDirectiveModule&#45;&gt;ToolbarFullscreenButtonDirective  -->
<g id="edge54" class="edge">
<title>ApiDirectiveModule&#45;&gt;ToolbarFullscreenButtonDirective </title>
<path fill="none" stroke="black" stroke-dasharray="5,2" d="M3232.79,-178C2906.34,-178 1483.88,-178 1483.88,-178 1483.88,-178 1483.88,-205.97 1483.88,-205.97"/>
<polygon fill="black" stroke="black" points="1480.38,-205.97 1483.88,-215.97 1487.38,-205.97 1480.38,-205.97"/>
</g>
<!-- ToolbarLeaveButtonDirective  -->
<g id="node56" class="node">
<title>ToolbarLeaveButtonDirective </title>
<polygon fill="#fb8072" stroke="black" points="1338.22,-252 1149.78,-252 1149.78,-216 1338.22,-216 1338.22,-252"/>
<text text-anchor="middle" x="1244" y="-229.8" font-family="Times,serif" font-size="14.00">ToolbarLeaveButtonDirective </text>
</g>
<!-- ApiDirectiveModule&#45;&gt;ToolbarLeaveButtonDirective  -->
<g id="edge55" class="edge">
<title>ApiDirectiveModule&#45;&gt;ToolbarLeaveButtonDirective </title>
<path fill="none" stroke="black" stroke-dasharray="5,2" d="M3232.85,-176C2883.31,-176 1267.38,-176 1267.38,-176 1267.38,-176 1267.38,-205.97 1267.38,-205.97"/>
<polygon fill="black" stroke="black" points="1263.88,-205.97 1267.38,-215.97 1270.88,-205.97 1263.88,-205.97"/>
</g>
<!-- ToolbarParticipantsPanelButtonDirective  -->
<g id="node57" class="node">
<title>ToolbarParticipantsPanelButtonDirective </title>
<polygon fill="#fb8072" stroke="black" points="1131.72,-252 880.28,-252 880.28,-216 1131.72,-216 1131.72,-252"/>
<text text-anchor="middle" x="1006" y="-229.8" font-family="Times,serif" font-size="14.00">ToolbarParticipantsPanelButtonDirective </text>
</g>
<!-- ApiDirectiveModule&#45;&gt;ToolbarParticipantsPanelButtonDirective  -->
<g id="edge56" class="edge">
<title>ApiDirectiveModule&#45;&gt;ToolbarParticipantsPanelButtonDirective </title>
<path fill="none" stroke="black" stroke-dasharray="5,2" d="M3232.67,-175C2858.8,-175 1031.38,-175 1031.38,-175 1031.38,-175 1031.38,-205.98 1031.38,-205.98"/>
<polygon fill="black" stroke="black" points="1027.88,-205.98 1031.38,-215.98 1034.88,-205.98 1027.88,-205.98"/>
</g>
<!-- ToolbarRecordingButtonDirective  -->
<g id="node58" class="node">
<title>ToolbarRecordingButtonDirective </title>
<polygon fill="#fb8072" stroke="black" points="862.34,-252 649.66,-252 649.66,-216 862.34,-216 862.34,-252"/>
<text text-anchor="middle" x="756" y="-229.8" font-family="Times,serif" font-size="14.00">ToolbarRecordingButtonDirective </text>
</g>
<!-- ApiDirectiveModule&#45;&gt;ToolbarRecordingButtonDirective  -->
<g id="edge57" class="edge">
<title>ApiDirectiveModule&#45;&gt;ToolbarRecordingButtonDirective </title>
<path fill="none" stroke="black" stroke-dasharray="5,2" d="M3232.68,-174C2834.98,-174 783.38,-174 783.38,-174 783.38,-174 783.38,-206 783.38,-206"/>
<polygon fill="black" stroke="black" points="779.88,-206 783.38,-216 786.88,-206 779.88,-206"/>
</g>
<!-- ToolbarScreenshareButtonDirective  -->
<g id="node59" class="node">
<title>ToolbarScreenshareButtonDirective </title>
<polygon fill="#fb8072" stroke="black" points="631.64,-252 410.36,-252 410.36,-216 631.64,-216 631.64,-252"/>
<text text-anchor="middle" x="521" y="-229.8" font-family="Times,serif" font-size="14.00">ToolbarScreenshareButtonDirective </text>
</g>
<!-- ApiDirectiveModule&#45;&gt;ToolbarScreenshareButtonDirective  -->
<g id="edge58" class="edge">
<title>ApiDirectiveModule&#45;&gt;ToolbarScreenshareButtonDirective </title>
<path fill="none" stroke="black" stroke-dasharray="5,2" d="M3232.76,-173C2813.88,-173 550.38,-173 550.38,-173 550.38,-173 550.38,-205.7 550.38,-205.7"/>
<polygon fill="black" stroke="black" points="546.88,-205.7 550.38,-215.7 553.88,-205.7 546.88,-205.7"/>
</g>
<!-- ToolbarSettingsButtonDirective  -->
<g id="node60" class="node">
<title>ToolbarSettingsButtonDirective </title>
<polygon fill="#fb8072" stroke="black" points="392.63,-252 193.37,-252 193.37,-216 392.63,-216 392.63,-252"/>
<text text-anchor="middle" x="293" y="-229.8" font-family="Times,serif" font-size="14.00">ToolbarSettingsButtonDirective </text>
</g>
<!-- ApiDirectiveModule&#45;&gt;ToolbarSettingsButtonDirective  -->
<g id="edge59" class="edge">
<title>ApiDirectiveModule&#45;&gt;ToolbarSettingsButtonDirective </title>
<path fill="none" stroke="black" stroke-dasharray="5,2" d="M3232.69,-171C2793.71,-171 323.88,-171 323.88,-171 323.88,-171 323.88,-205.78 323.88,-205.78"/>
<polygon fill="black" stroke="black" points="320.38,-205.78 323.88,-215.78 327.38,-205.78 320.38,-205.78"/>
</g>
<!-- VideoEnabledDirective  -->
<g id="node61" class="node">
<title>VideoEnabledDirective </title>
<polygon fill="#fb8072" stroke="black" points="175.67,-252 24.33,-252 24.33,-216 175.67,-216 175.67,-252"/>
<text text-anchor="middle" x="100" y="-229.8" font-family="Times,serif" font-size="14.00">VideoEnabledDirective </text>
</g>
<!-- ApiDirectiveModule&#45;&gt;VideoEnabledDirective  -->
<g id="edge60" class="edge">
<title>ApiDirectiveModule&#45;&gt;VideoEnabledDirective </title>
<path fill="none" stroke="black" stroke-dasharray="5,2" d="M3232.86,-170C2778.12,-170 132.38,-170 132.38,-170 132.38,-170 132.38,-205.83 132.38,-205.83"/>
<polygon fill="black" stroke="black" points="128.88,-205.83 132.38,-215.83 135.88,-205.83 128.88,-205.83"/>
</g>
</g>
</svg>
