<svg xmlns:xlink="http://www.w3.org/1999/xlink" width="28" height="24" viewBox="0 0 28 24" fill="none" xmlns="http://www.w3.org/2000/svg" role="presentation" class="h-5 w-5 text-fg1"><path fill-rule="evenodd" clip-rule="evenodd" d="M12.2277 0C10.468 0 8.889 1.07964 8.25241 2.71816L0 23.9572H6.26897L12.7646 7.23953H12.7674C12.9304 6.83204 13.3292 6.54418 13.7953 6.54418C14.2614 6.54418 14.6602 6.83204 14.8232 7.23953H15.6887V3.84843H14.0822L15.5775 0H12.2277Z" fill="#CCCCCC"></path><path fill-rule="evenodd" clip-rule="evenodd" d="M8.25286 2.73956C8.86365 1.16764 10.3417 0.110094 12.0146 0.0267103L12.0125 0.0213928H12.2282H14.6398H15.4695C17.2292 0.0213928 18.8082 1.10103 19.4448 2.73956L27.6972 23.9786H21.321L13.3185 3.38286C12.8604 2.3735 11.8428 1.67141 10.661 1.67141C9.47629 1.67141 8.45657 2.37695 8 3.39031L8.25286 2.73956Z" fill="#CCCCCC"></path></svg>