<svg xmlns:xlink="http://www.w3.org/1999/xlink" width="47" height="34" viewBox="0 -3 47 34" fill="none" xmlns="http://www.w3.org/2000/svg" role="presentation" class="h-5 w-5 text-fg1"><path d="M13.2451 10.1691C13.2451 10.7453 13.3076 11.2125 13.417 11.5551C13.5421 11.8977 13.6984 12.2714 13.9172 12.6763C13.9954 12.8009 14.0266 12.9255 14.0266 13.0345C14.0266 13.1902 13.9328 13.3459 13.7296 13.5017L12.7448 14.1557C12.6042 14.2492 12.4635 14.2959 12.3384 14.2959C12.1821 14.2959 12.0258 14.218 11.8695 14.0779C11.6506 13.8443 11.463 13.5951 11.3067 13.3459C11.1504 13.0812 10.9941 12.7853 10.8221 12.4271C9.60286 13.8598 8.07096 14.5762 6.22642 14.5762C4.91335 14.5762 3.86603 14.2024 3.10007 13.4549C2.33412 12.7075 1.94333 11.7108 1.94333 10.465C1.94333 9.14127 2.41228 8.06674 3.36581 7.25695C4.31935 6.44716 5.58552 6.04227 7.19558 6.04227C7.72706 6.04227 8.27417 6.08899 8.85254 6.16685C9.43091 6.24472 10.0249 6.3693 10.6502 6.50946V5.37264C10.6502 4.1891 10.4001 3.36374 9.9155 2.88098C9.41528 2.39822 8.57117 2.16463 7.36753 2.16463C6.82042 2.16463 6.25768 2.22692 5.67931 2.36707C5.10093 2.50723 4.53819 2.67853 3.99108 2.89655C3.74097 3.00556 3.55339 3.06785 3.44397 3.099C3.33455 3.13014 3.25639 3.14572 3.19387 3.14572C2.97502 3.14572 2.8656 2.98999 2.8656 2.66296V1.89989C2.8656 1.65072 2.89686 1.46385 2.97502 1.35484C3.05318 1.24583 3.19387 1.13682 3.41271 1.02781C3.95982 0.747497 4.61635 0.513904 5.3823 0.32703C6.14826 0.124583 6.96111 0.0311457 7.82085 0.0311457C9.68102 0.0311457 11.041 0.451613 11.9164 1.29255C12.7761 2.13348 13.2138 3.41046 13.2138 5.12347V10.1691H13.2451ZM6.89858 12.5362C7.41443 12.5362 7.9459 12.4427 8.50864 12.2558C9.07139 12.069 9.5716 11.7264 9.99366 11.2592C10.2438 10.9633 10.4313 10.6363 10.5251 10.2625C10.6189 9.88876 10.6815 9.43715 10.6815 8.90767V8.25361C10.2281 8.1446 9.74355 8.05117 9.24333 7.98888C8.74312 7.92659 8.25854 7.89544 7.77395 7.89544C6.72663 7.89544 5.96068 8.09789 5.44483 8.51835C4.92898 8.93882 4.67888 9.53059 4.67888 10.3092C4.67888 11.0412 4.86646 11.5862 5.25725 11.96C5.63241 12.3493 6.17952 12.5362 6.89858 12.5362ZM19.4508 14.218C19.1695 14.218 18.9819 14.1713 18.8568 14.0623C18.7318 13.9689 18.6224 13.7508 18.5286 13.4549L14.8551 1.41713C14.7613 1.10567 14.7144 0.903226 14.7144 0.794216C14.7144 0.54505 14.8395 0.404894 15.0896 0.404894H16.6215C16.9185 0.404894 17.1217 0.451613 17.2311 0.560623C17.3562 0.65406 17.45 0.87208 17.5438 1.16796L20.1699 11.4772L22.6084 1.16796C22.6866 0.856507 22.7804 0.65406 22.9054 0.560623C23.0305 0.467186 23.2493 0.404894 23.5307 0.404894H24.7812C25.0782 0.404894 25.2815 0.451613 25.4065 0.560623C25.5316 0.65406 25.641 0.87208 25.7035 1.16796L28.1733 11.6018L30.8776 1.16796C30.9714 0.856507 31.0808 0.65406 31.1902 0.560623C31.3153 0.467186 31.5185 0.404894 31.7999 0.404894H33.2536C33.5037 0.404894 33.6444 0.529477 33.6444 0.794216C33.6444 0.87208 33.6288 0.949944 33.6132 1.04338C33.5975 1.13682 33.5663 1.2614 33.5037 1.4327L29.7365 13.4705C29.6427 13.782 29.5333 13.9844 29.4082 14.0779C29.2832 14.1713 29.08 14.2336 28.8142 14.2336H27.4699C27.1729 14.2336 26.9697 14.1869 26.8446 14.0779C26.7196 13.9689 26.6102 13.7664 26.5476 13.4549L24.1247 3.41046L21.7174 13.4394C21.6393 13.7508 21.5455 13.9533 21.4204 14.0623C21.2954 14.1713 21.0765 14.218 20.7952 14.218H19.4508ZM39.5376 14.6385C38.7247 14.6385 37.9119 14.545 37.1303 14.3582C36.3487 14.1713 35.7391 13.9689 35.3326 13.7353C35.0825 13.5951 34.9106 13.4394 34.8481 13.2992C34.7855 13.1591 34.7543 13.0033 34.7543 12.8632V12.069C34.7543 11.7419 34.8793 11.5862 35.1138 11.5862C35.2076 11.5862 35.3014 11.6018 35.3952 11.6329C35.489 11.6641 35.6297 11.7264 35.786 11.7887C36.3174 12.0222 36.8958 12.2091 37.5055 12.3337C38.1307 12.4583 38.7404 12.5206 39.3656 12.5206C40.3504 12.5206 41.1164 12.3493 41.6479 12.0067C42.1793 11.6641 42.4607 11.1657 42.4607 10.5273C42.4607 10.0912 42.32 9.73304 42.0386 9.43715C41.7573 9.14127 41.2258 8.87653 40.4598 8.62736L38.1932 7.92658C37.0521 7.56841 36.208 7.03893 35.6922 6.33815C35.1763 5.65295 34.9106 4.88988 34.9106 4.08009C34.9106 3.42603 35.0513 2.84983 35.3326 2.3515C35.614 1.85317 35.9892 1.41713 36.4581 1.07453C36.9271 0.716351 37.4586 0.451613 38.0838 0.264739C38.7091 0.0778643 39.3656 0 40.0534 0C40.3973 0 40.7568 0.0155729 41.1007 0.0622914C41.4603 0.10901 41.7885 0.171301 42.1168 0.233593C42.4294 0.311457 42.7264 0.389321 43.0078 0.482759C43.2892 0.576196 43.508 0.669633 43.6643 0.76307C43.8832 0.887653 44.0395 1.01224 44.1333 1.15239C44.2271 1.27697 44.274 1.44828 44.274 1.6663V2.39822C44.274 2.72525 44.1489 2.89655 43.9145 2.89655C43.7894 2.89655 43.5862 2.83426 43.3204 2.70968C42.4294 2.30478 41.429 2.10234 40.3192 2.10234C39.4282 2.10234 38.7247 2.24249 38.2401 2.53838C37.7556 2.83426 37.5055 3.28587 37.5055 3.92436C37.5055 4.3604 37.6618 4.73415 37.9744 5.03003C38.287 5.32592 38.8654 5.6218 39.6939 5.88654L41.9136 6.58732C43.0391 6.9455 43.8519 7.44383 44.3365 8.08231C44.8211 8.7208 45.0556 9.45272 45.0556 10.2625C45.0556 10.9321 44.9149 11.5395 44.6491 12.069C44.3678 12.5984 43.9926 13.0656 43.508 13.4394C43.0234 13.8287 42.4451 14.109 41.7729 14.3115C41.0695 14.5295 40.3348 14.6385 39.5376 14.6385Z" fill="#CCCCCC"></path><path fill-rule="evenodd" clip-rule="evenodd" d="M42.492 22.2069C37.3491 25.9911 29.8772 28 23.4526 28C14.4487 28 6.33585 24.683 0.208217 19.1702C-0.276366 18.7341 0.161322 18.1424 0.739695 18.485C7.36754 22.3159 15.5429 24.6363 23.9997 24.6363C29.7052 24.6363 35.9736 23.4527 41.7417 21.0234C42.6014 20.634 43.3361 21.584 42.492 22.2069Z" fill="#CCCCCC"></path><path fill-rule="evenodd" clip-rule="evenodd" d="M44.6335 19.7775C43.977 18.9366 40.2879 19.3726 38.6153 19.5751C38.1151 19.6374 38.0369 19.2013 38.4903 18.8743C41.429 16.8187 46.2592 17.4105 46.822 18.0957C47.3847 18.7964 46.6656 23.6084 43.9145 25.9132C43.4924 26.2714 43.086 26.0845 43.2736 25.6173C43.8988 24.0756 45.29 20.6029 44.6335 19.7775Z" fill="#CCCCCC"></path></svg>