<svg xmlns:xlink="http://www.w3.org/1999/xlink" width="16" height="16" viewBox="0 0 16 16" fill="none" xmlns="http://www.w3.org/2000/svg" role="presentation" class="h-5 w-5 text-fg1"><path d="M4.53728 10.7547C4.66763 11.6148 5.011 12.1759 5.56898 12.4381C6.12695 12.7002 6.7962 12.8313 7.57673 12.8313C8.50669 12.8313 9.1664 12.7194 9.55746 12.494C9.96601 12.251 10.1711 11.8674 10.1711 11.3446C10.1711 10.9705 10.0407 10.6428 9.78002 10.363C9.53839 10.0833 9.06467 9.88665 8.35726 9.77475L6.3495 9.43744C4.58338 9.15768 3.26236 8.67969 2.38804 8.00666C1.5328 7.31446 1.10517 6.27695 1.10517 4.89253C1.10517 4.18114 1.2546 3.54648 1.55187 2.98536C1.86822 2.42424 2.30538 1.94785 2.86335 1.55459C3.42133 1.16133 4.08104 0.862382 4.84408 0.656159C5.62461 0.43235 6.47986 0.318848 7.40982 0.318848C8.56233 0.318848 9.53044 0.440344 10.311 0.683336C11.0915 0.907144 11.7242 1.21568 12.2075 1.60894C12.7098 2.00221 13.0818 2.46901 13.3234 3.01094C13.5841 3.55288 13.7701 4.13318 13.8814 4.75025L10.3952 5.19947C10.2283 4.52644 9.93104 4.03087 9.50342 3.71274C9.09487 3.39461 8.42562 3.23635 7.49566 3.23635C6.97425 3.23635 6.53868 3.28271 6.18418 3.37703C5.84876 3.45216 5.5801 3.55448 5.37504 3.68556C5.18904 3.81665 5.04915 3.96533 4.95695 4.13478C4.88224 4.30264 4.84567 4.4625 4.84567 4.61117C4.84567 5.07797 4.98557 5.42487 5.26376 5.64868C5.56103 5.85491 6.12854 6.03235 6.96471 6.18103L8.80555 6.48956C9.82771 6.65742 10.675 6.87324 11.3443 7.13541C12.0135 7.39759 12.5445 7.72371 12.9339 8.11697C13.3425 8.49105 13.6223 8.94026 13.7701 9.46302C13.937 9.98737 14.0213 10.5948 14.0213 11.2871C14.0213 12.6715 13.4999 13.7841 12.4586 14.625C11.4174 15.4483 9.80863 15.8591 7.63237 15.8591C6.75805 15.8591 5.92188 15.7744 5.12228 15.6066C4.34175 15.4563 3.63434 15.1861 3.00165 14.7929C2.38804 14.3996 1.87616 13.8768 1.46762 13.2214C1.07656 12.5676 0.854005 11.7443 0.798367 10.7531H4.53569L4.53728 10.7547Z" fill="#CCCCCC"></path></svg>