<svg xmlns:xlink="http://www.w3.org/1999/xlink" width="17" height="16" viewBox="0 0 17 16" fill="none" xmlns="http://www.w3.org/2000/svg" role="presentation" class="h-5 w-5 text-fg1"><path d="M8.46865 16H2.01132C1.96348 15.9999 1.91674 15.9857 1.87696 15.9591C1.83719 15.9325 1.80617 15.8947 1.78779 15.8506C1.76941 15.8064 1.76449 15.7578 1.77366 15.7108C1.78283 15.6639 1.80567 15.6207 1.83932 15.5867L5.99865 11.4033C6.02128 11.3806 6.04818 11.3625 6.07781 11.3501C6.10744 11.3378 6.13922 11.3314 6.17132 11.3313H8.51799C10.3333 11.3313 11.868 9.91333 11.9227 8.10133C11.9355 7.65551 11.8588 7.21164 11.6971 6.79598C11.5354 6.38031 11.292 6.00128 10.9813 5.68131C10.6706 5.36134 10.2989 5.10693 9.88816 4.93311C9.47742 4.75929 9.03599 4.66959 8.58999 4.66933H6.07532V7.76667C6.07532 7.9 5.96599 8.00933 5.83199 8.00933H1.64532C1.58113 8.00898 1.51968 7.98328 1.47435 7.93783C1.42903 7.89238 1.4035 7.83086 1.40332 7.76667V0.242667C1.40332 0.109333 1.51199 0 1.64599 0H8.58999C13.046 0 16.664 3.65667 16.5967 8.12467C16.5287 12.5133 12.8633 16 8.46865 16Z" fill="#CCCCCC"></path></svg>