<?xml version="1.0" encoding="UTF-8"?>
<!DOCTYPE svg PUBLIC "-//W3C//DTD SVG 1.1//EN" "http://www.w3.org/Graphics/SVG/1.1/DTD/svg11.dtd">
<svg xmlns="http://www.w3.org/2000/svg" xmlns:xlink="http://www.w3.org/1999/xlink" version="1.1" width="703px" height="524px" viewBox="-0.5 -0.5 703 524"><defs><pattern patternUnits="userSpaceOnUse" width="32" height="32" x="0" y="0" patternTransform="rotate(45)" id="mx-pattern-hatch-2-66ff66-0"><line x1="0" y1="0" x2="0" y2="32" stroke="#66ff66" stroke-width="6"/></pattern><pattern patternUnits="userSpaceOnUse" width="32" height="32" x="0" y="0" patternTransform="rotate(45)" id="mx-pattern-hatch-2-none-0"><line x1="0" y1="0" x2="0" y2="32" stroke="none" stroke-width="6"/></pattern><linearGradient x1="0%" y1="0%" x2="0%" y2="100%" id="mx-gradient-b3b3b3-1-1e2729-1-s-0"><stop offset="0%" style="stop-color: rgb(179, 179, 179); stop-opacity: 1;"/><stop offset="100%" style="stop-color: rgb(30, 39, 41); stop-opacity: 1;"/></linearGradient></defs><g><g/><g><rect x="0" y="0" width="700" height="520" rx="36.4" ry="36.4" fill="#1e2729" stroke="#4d4d4d" stroke-width="2" pointer-events="all"/></g><g><path d="M 0 425 L 700 425 L 700 481 C 700 503.09 682.09 521 660 521 L 40 521 C 17.91 521 0 503.09 0 481 L 0 425 Z" fill="url(#mx-pattern-hatch-2-66ff66-0)" stroke="none" pointer-events="all"/><path d="M 8 433 L 8 477 C 8 496.88 24.12 513 44 513 L 656 513 C 675.88 513 692 496.88 692 477 L 692 433 L 8 433" fill="url(#mx-pattern-hatch-2-none-0)" stroke="none" pointer-events="all"/><path d="M 0 425 L 700 425 L 700 481 C 700 503.09 682.09 521 660 521 L 40 521 C 17.91 521 0 503.09 0 481 L 0 425 Z" fill="none" stroke="#66ff66" stroke-width="2" stroke-miterlimit="10" stroke-dasharray="6 6" pointer-events="all"/></g><g><path d="M 0 424 L 480 424 L 700 424" fill="none" stroke="none" pointer-events="stroke"/></g><g><rect x="20" y="20" width="480" height="380" rx="26.6" ry="26.6" fill="none" stroke="#b3b3b3" stroke-width="2" pointer-events="all"/></g><g><rect x="520" y="20" width="160" height="380" rx="11.2" ry="11.2" fill="none" stroke="#b3b3b3" stroke-width="2" pointer-events="all"/></g><g><path d="M 220 260 C 220 220 220 200 260 200 C 233.33 200 233.33 160 260 160 C 286.67 160 286.67 200 260 200 C 300 200 300 220 300 260 Z" fill="url(#mx-gradient-b3b3b3-1-1e2729-1-s-0)" stroke="#1e2729" stroke-width="2" stroke-miterlimit="10" pointer-events="all"/></g><g><path d="M 240 280 C 240 240 240 220 280 220 C 253.33 220 253.33 180 280 180 C 306.67 180 306.67 220 280 220 C 320 220 320 240 320 280 Z" fill="url(#mx-gradient-b3b3b3-1-1e2729-1-s-0)" stroke="#1e2729" stroke-width="2" stroke-miterlimit="10" pointer-events="all"/></g></g></svg>