<svg xmlns="http://www.w3.org/2000/svg" viewBox="0 0 900 744" width="100%" style="max-width:900px;font-family:system-ui, -apple-system, 'Segoe UI', Roboto, sans-serif">
<text x="40" y="30" font-size="21" font-weight="700" fill="#ffffff">Every run, not just the average</text>
<text x="40" y="50" font-size="13.5" fill="#c3c2b7">Each dot is one deployment · the vertical tick is the mean · tighter = more predictable</text>
<text x="40" y="82" font-size="15" font-weight="700" fill="#ffffff">Single node</text>
<line x1="132.0" y1="94" x2="132.0" y2="244" stroke="#2c2c2a" stroke-width="1"/>
<text x="132.0" y="260" text-anchor="middle" font-size="10.5" fill="#898781" style="font-variant-numeric:tabular-nums">0</text>
<line x1="293.1" y1="94" x2="293.1" y2="244" stroke="#2c2c2a" stroke-width="1"/>
<text x="293.1" y="260" text-anchor="middle" font-size="10.5" fill="#898781" style="font-variant-numeric:tabular-nums">3</text>
<line x1="454.2" y1="94" x2="454.2" y2="244" stroke="#2c2c2a" stroke-width="1"/>
<text x="454.2" y="260" text-anchor="middle" font-size="10.5" fill="#898781" style="font-variant-numeric:tabular-nums">6</text>
<line x1="615.2" y1="94" x2="615.2" y2="244" stroke="#2c2c2a" stroke-width="1"/>
<text x="615.2" y="260" text-anchor="middle" font-size="10.5" fill="#898781" style="font-variant-numeric:tabular-nums">9</text>
<line x1="776.3" y1="94" x2="776.3" y2="244" stroke="#2c2c2a" stroke-width="1"/>
<text x="776.3" y="260" text-anchor="middle" font-size="10.5" fill="#898781" style="font-variant-numeric:tabular-nums">12</text>
<text x="836" y="260" font-size="10" fill="#898781">min</text>
<text x="118" y="113.0" text-anchor="end" font-size="12.5" font-weight="600" fill="#ffffff">AWS</text>
<line x1="517.7" y1="109.0" x2="577.6" y2="109.0" stroke="#3987e5" stroke-width="1.5" opacity="0.35"/>
<circle cx="517.7" cy="100.6" r="4.6" fill="#3987e5" opacity="0.9"/>
<circle cx="517.7" cy="104.8" r="4.6" fill="#3987e5" opacity="0.9"/>
<circle cx="517.7" cy="109.0" r="4.6" fill="#3987e5" opacity="0.9"/>
<circle cx="519.5" cy="113.2" r="4.6" fill="#3987e5" opacity="0.9"/>
<circle cx="577.6" cy="117.4" r="4.6" fill="#3987e5" opacity="0.9"/>
<line x1="530.0" y1="98.0" x2="530.0" y2="120.0" stroke="#ffffff" stroke-width="2.4"/>
<text x="836" y="113.0" font-size="10.5" fill="#898781" style="font-variant-numeric:tabular-nums">n=5</text>
<text x="118" y="143.0" text-anchor="end" font-size="12.5" font-weight="600" fill="#ffffff">Azure</text>
<line x1="447.0" y1="139.0" x2="503.4" y2="139.0" stroke="#199e70" stroke-width="1.5" opacity="0.35"/>
<circle cx="447.0" cy="130.6" r="4.6" fill="#199e70" opacity="0.9"/>
<circle cx="447.9" cy="134.8" r="4.6" fill="#199e70" opacity="0.9"/>
<circle cx="453.3" cy="139.0" r="4.6" fill="#199e70" opacity="0.9"/>
<circle cx="465.8" cy="143.2" r="4.6" fill="#199e70" opacity="0.9"/>
<circle cx="503.4" cy="147.4" r="4.6" fill="#199e70" opacity="0.9"/>
<line x1="463.5" y1="128.0" x2="463.5" y2="150.0" stroke="#ffffff" stroke-width="2.4"/>
<text x="836" y="143.0" font-size="10.5" fill="#898781" style="font-variant-numeric:tabular-nums">n=5</text>
<text x="118" y="173.0" text-anchor="end" font-size="12.5" font-weight="600" fill="#ffffff">GCP</text>
<line x1="436.3" y1="169.0" x2="495.3" y2="169.0" stroke="#c98500" stroke-width="1.5" opacity="0.35"/>
<circle cx="436.3" cy="160.6" r="4.6" fill="#c98500" opacity="0.9"/>
<circle cx="448.8" cy="164.8" r="4.6" fill="#c98500" opacity="0.9"/>
<circle cx="449.7" cy="169.0" r="4.6" fill="#c98500" opacity="0.9"/>
<circle cx="472.1" cy="173.2" r="4.6" fill="#c98500" opacity="0.9"/>
<circle cx="495.3" cy="177.4" r="4.6" fill="#c98500" opacity="0.9"/>
<line x1="460.4" y1="158.0" x2="460.4" y2="180.0" stroke="#ffffff" stroke-width="2.4"/>
<text x="836" y="173.0" font-size="10.5" fill="#898781" style="font-variant-numeric:tabular-nums">n=5</text>
<text x="118" y="203.0" text-anchor="end" font-size="12.5" font-weight="600" fill="#ffffff">Oracle</text>
<line x1="606.3" y1="199.0" x2="806.7" y2="199.0" stroke="#008300" stroke-width="1.5" opacity="0.35"/>
<circle cx="606.3" cy="192.7" r="4.6" fill="#008300" opacity="0.9"/>
<circle cx="607.2" cy="196.9" r="4.6" fill="#008300" opacity="0.9"/>
<circle cx="608.1" cy="201.1" r="4.6" fill="#008300" opacity="0.9"/>
<circle cx="806.7" cy="205.3" r="4.6" fill="#008300" opacity="0.9"/>
<line x1="657.1" y1="188.0" x2="657.1" y2="210.0" stroke="#ffffff" stroke-width="2.4"/>
<text x="836" y="203.0" font-size="10.5" fill="#898781" style="font-variant-numeric:tabular-nums">n=4</text>
<text x="118" y="233.0" text-anchor="end" font-size="12.5" font-weight="600" fill="#ffffff">DigitalOcean</text>
<line x1="410.3" y1="229.0" x2="449.7" y2="229.0" stroke="#9085e9" stroke-width="1.5" opacity="0.35"/>
<circle cx="410.3" cy="222.7" r="4.6" fill="#9085e9" opacity="0.9"/>
<circle cx="424.6" cy="226.9" r="4.6" fill="#9085e9" opacity="0.9"/>
<circle cx="429.1" cy="231.1" r="4.6" fill="#9085e9" opacity="0.9"/>
<circle cx="449.7" cy="235.3" r="4.6" fill="#9085e9" opacity="0.9"/>
<line x1="428.4" y1="218.0" x2="428.4" y2="240.0" stroke="#ffffff" stroke-width="2.4"/>
<text x="836" y="233.0" font-size="10.5" fill="#898781" style="font-variant-numeric:tabular-nums">n=4</text>
<text x="40" y="312" font-size="15" font-weight="700" fill="#ffffff">Elastic</text>
<line x1="132.0" y1="324" x2="132.0" y2="474" stroke="#2c2c2a" stroke-width="1"/>
<text x="132.0" y="490" text-anchor="middle" font-size="10.5" fill="#898781" style="font-variant-numeric:tabular-nums">0</text>
<line x1="306.5" y1="324" x2="306.5" y2="474" stroke="#2c2c2a" stroke-width="1"/>
<text x="306.5" y="490" text-anchor="middle" font-size="10.5" fill="#898781" style="font-variant-numeric:tabular-nums">2</text>
<line x1="481.0" y1="324" x2="481.0" y2="474" stroke="#2c2c2a" stroke-width="1"/>
<text x="481.0" y="490" text-anchor="middle" font-size="10.5" fill="#898781" style="font-variant-numeric:tabular-nums">4</text>
<line x1="655.5" y1="324" x2="655.5" y2="474" stroke="#2c2c2a" stroke-width="1"/>
<text x="655.5" y="490" text-anchor="middle" font-size="10.5" fill="#898781" style="font-variant-numeric:tabular-nums">6</text>
<line x1="830.0" y1="324" x2="830.0" y2="474" stroke="#2c2c2a" stroke-width="1"/>
<text x="830.0" y="490" text-anchor="middle" font-size="10.5" fill="#898781" style="font-variant-numeric:tabular-nums">8</text>
<text x="836" y="490" font-size="10" fill="#898781">min</text>
<text x="118" y="343.0" text-anchor="end" font-size="12.5" font-weight="600" fill="#ffffff">AWS</text>
<line x1="723.8" y1="339.0" x2="793.6" y2="339.0" stroke="#3987e5" stroke-width="1.5" opacity="0.35"/>
<circle cx="723.8" cy="330.6" r="4.6" fill="#3987e5" opacity="0.9"/>
<circle cx="723.8" cy="334.8" r="4.6" fill="#3987e5" opacity="0.9"/>
<circle cx="723.8" cy="339.0" r="4.6" fill="#3987e5" opacity="0.9"/>
<circle cx="725.3" cy="343.2" r="4.6" fill="#3987e5" opacity="0.9"/>
<circle cx="793.6" cy="347.4" r="4.6" fill="#3987e5" opacity="0.9"/>
<line x1="738.1" y1="328.0" x2="738.1" y2="350.0" stroke="#ffffff" stroke-width="2.4"/>
<text x="836" y="343.0" font-size="10.5" fill="#898781" style="font-variant-numeric:tabular-nums">n=5</text>
<text x="118" y="373.0" text-anchor="end" font-size="12.5" font-weight="600" fill="#ffffff">Azure</text>
<line x1="550.8" y1="369.0" x2="806.7" y2="369.0" stroke="#199e70" stroke-width="1.5" opacity="0.35"/>
<circle cx="550.8" cy="360.6" r="4.6" fill="#199e70" opacity="0.9"/>
<circle cx="581.3" cy="364.8" r="4.6" fill="#199e70" opacity="0.9"/>
<circle cx="623.5" cy="369.0" r="4.6" fill="#199e70" opacity="0.9"/>
<circle cx="626.4" cy="373.2" r="4.6" fill="#199e70" opacity="0.9"/>
<circle cx="806.7" cy="377.4" r="4.6" fill="#199e70" opacity="0.9"/>
<line x1="637.8" y1="358.0" x2="637.8" y2="380.0" stroke="#ffffff" stroke-width="2.4"/>
<text x="836" y="373.0" font-size="10.5" fill="#898781" style="font-variant-numeric:tabular-nums">n=5</text>
<text x="118" y="403.0" text-anchor="end" font-size="12.5" font-weight="600" fill="#ffffff">GCP</text>
<line x1="585.7" y1="399.0" x2="604.6" y2="399.0" stroke="#c98500" stroke-width="1.5" opacity="0.35"/>
<circle cx="585.7" cy="390.6" r="4.6" fill="#c98500" opacity="0.9"/>
<circle cx="588.6" cy="394.8" r="4.6" fill="#c98500" opacity="0.9"/>
<circle cx="591.5" cy="399.0" r="4.6" fill="#c98500" opacity="0.9"/>
<circle cx="598.8" cy="403.2" r="4.6" fill="#c98500" opacity="0.9"/>
<circle cx="604.6" cy="407.4" r="4.6" fill="#c98500" opacity="0.9"/>
<line x1="593.8" y1="388.0" x2="593.8" y2="410.0" stroke="#ffffff" stroke-width="2.4"/>
<text x="836" y="403.0" font-size="10.5" fill="#898781" style="font-variant-numeric:tabular-nums">n=5</text>
<text x="118" y="433.0" text-anchor="end" font-size="12.5" font-weight="600" fill="#ffffff">Oracle</text>
<circle cx="638.0" cy="429.0" r="4.6" fill="#008300" opacity="0.9"/>
<line x1="638.0" y1="418.0" x2="638.0" y2="440.0" stroke="#ffffff" stroke-width="2.4"/>
<text x="836" y="433.0" font-size="10.5" fill="#898781" style="font-variant-numeric:tabular-nums">n=1</text>
<text x="118" y="463.0" text-anchor="end" font-size="12.5" font-weight="600" fill="#ffffff">DigitalOcean</text>
<line x1="441.7" y1="459.0" x2="553.7" y2="459.0" stroke="#9085e9" stroke-width="1.5" opacity="0.35"/>
<circle cx="441.7" cy="452.7" r="4.6" fill="#9085e9" opacity="0.9"/>
<circle cx="513.0" cy="456.9" r="4.6" fill="#9085e9" opacity="0.9"/>
<circle cx="540.6" cy="461.1" r="4.6" fill="#9085e9" opacity="0.9"/>
<circle cx="553.7" cy="465.3" r="4.6" fill="#9085e9" opacity="0.9"/>
<line x1="512.3" y1="448.0" x2="512.3" y2="470.0" stroke="#ffffff" stroke-width="2.4"/>
<text x="836" y="463.0" font-size="10.5" fill="#898781" style="font-variant-numeric:tabular-nums">n=4</text>
<text x="40" y="542" font-size="15" font-weight="700" fill="#ffffff">High availability</text>
<line x1="132.0" y1="554" x2="132.0" y2="704" stroke="#2c2c2a" stroke-width="1"/>
<text x="132.0" y="720" text-anchor="middle" font-size="10.5" fill="#898781" style="font-variant-numeric:tabular-nums">0</text>
<line x1="252.3" y1="554" x2="252.3" y2="704" stroke="#2c2c2a" stroke-width="1"/>
<text x="252.3" y="720" text-anchor="middle" font-size="10.5" fill="#898781" style="font-variant-numeric:tabular-nums">5</text>
<line x1="372.7" y1="554" x2="372.7" y2="704" stroke="#2c2c2a" stroke-width="1"/>
<text x="372.7" y="720" text-anchor="middle" font-size="10.5" fill="#898781" style="font-variant-numeric:tabular-nums">10</text>
<line x1="493.0" y1="554" x2="493.0" y2="704" stroke="#2c2c2a" stroke-width="1"/>
<text x="493.0" y="720" text-anchor="middle" font-size="10.5" fill="#898781" style="font-variant-numeric:tabular-nums">15</text>
<line x1="613.4" y1="554" x2="613.4" y2="704" stroke="#2c2c2a" stroke-width="1"/>
<text x="613.4" y="720" text-anchor="middle" font-size="10.5" fill="#898781" style="font-variant-numeric:tabular-nums">20</text>
<line x1="733.7" y1="554" x2="733.7" y2="704" stroke="#2c2c2a" stroke-width="1"/>
<text x="733.7" y="720" text-anchor="middle" font-size="10.5" fill="#898781" style="font-variant-numeric:tabular-nums">25</text>
<text x="836" y="720" font-size="10" fill="#898781">min</text>
<text x="118" y="573.0" text-anchor="end" font-size="12.5" font-weight="600" fill="#ffffff">AWS</text>
<line x1="425.2" y1="569.0" x2="797.9" y2="569.0" stroke="#3987e5" stroke-width="1.5" opacity="0.35"/>
<circle cx="425.2" cy="560.6" r="4.6" fill="#3987e5" opacity="0.9"/>
<circle cx="433.3" cy="564.8" r="4.6" fill="#3987e5" opacity="0.9"/>
<circle cx="446.1" cy="569.0" r="4.6" fill="#3987e5" opacity="0.9"/>
<circle cx="791.9" cy="573.2" r="4.6" fill="#3987e5" opacity="0.9"/>
<circle cx="797.9" cy="577.4" r="4.6" fill="#3987e5" opacity="0.9"/>
<line x1="578.9" y1="558.0" x2="578.9" y2="580.0" stroke="#ffffff" stroke-width="2.4"/>
<text x="836" y="573.0" font-size="10.5" fill="#898781" style="font-variant-numeric:tabular-nums">n=5</text>
<text x="118" y="603.0" text-anchor="end" font-size="12.5" font-weight="600" fill="#ffffff">Azure</text>
<line x1="364.7" y1="599.0" x2="398.4" y2="599.0" stroke="#199e70" stroke-width="1.5" opacity="0.35"/>
<circle cx="364.7" cy="590.6" r="4.6" fill="#199e70" opacity="0.9"/>
<circle cx="377.5" cy="594.8" r="4.6" fill="#199e70" opacity="0.9"/>
<circle cx="396.8" cy="599.0" r="4.6" fill="#199e70" opacity="0.9"/>
<circle cx="398.0" cy="603.2" r="4.6" fill="#199e70" opacity="0.9"/>
<circle cx="398.4" cy="607.4" r="4.6" fill="#199e70" opacity="0.9"/>
<line x1="387.1" y1="588.0" x2="387.1" y2="610.0" stroke="#ffffff" stroke-width="2.4"/>
<text x="836" y="603.0" font-size="10.5" fill="#898781" style="font-variant-numeric:tabular-nums">n=5</text>
<text x="118" y="633.0" text-anchor="end" font-size="12.5" font-weight="600" fill="#ffffff">GCP</text>
<line x1="273.6" y1="629.0" x2="284.0" y2="629.0" stroke="#c98500" stroke-width="1.5" opacity="0.35"/>
<circle cx="273.6" cy="622.7" r="4.6" fill="#c98500" opacity="0.9"/>
<circle cx="275.2" cy="626.9" r="4.6" fill="#c98500" opacity="0.9"/>
<circle cx="277.2" cy="631.1" r="4.6" fill="#c98500" opacity="0.9"/>
<circle cx="284.0" cy="635.3" r="4.6" fill="#c98500" opacity="0.9"/>
<line x1="277.5" y1="618.0" x2="277.5" y2="640.0" stroke="#ffffff" stroke-width="2.4"/>
<text x="836" y="633.0" font-size="10.5" fill="#898781" style="font-variant-numeric:tabular-nums">n=4</text>
<text x="118" y="663.0" text-anchor="end" font-size="12.5" font-weight="600" fill="#ffffff">Oracle</text>
<circle cx="415.2" cy="659.0" r="4.6" fill="#008300" opacity="0.9"/>
<line x1="415.2" y1="648.0" x2="415.2" y2="670.0" stroke="#ffffff" stroke-width="2.4"/>
<text x="836" y="663.0" font-size="10.5" fill="#898781" style="font-variant-numeric:tabular-nums">n=1</text>
<text x="118" y="693.0" text-anchor="end" font-size="12.5" font-weight="600" fill="#ffffff">DigitalOcean</text>
<line x1="260.8" y1="689.0" x2="296.9" y2="689.0" stroke="#9085e9" stroke-width="1.5" opacity="0.35"/>
<circle cx="260.8" cy="682.7" r="4.6" fill="#9085e9" opacity="0.9"/>
<circle cx="265.6" cy="686.9" r="4.6" fill="#9085e9" opacity="0.9"/>
<circle cx="288.0" cy="691.1" r="4.6" fill="#9085e9" opacity="0.9"/>
<circle cx="296.9" cy="695.3" r="4.6" fill="#9085e9" opacity="0.9"/>
<line x1="277.8" y1="678.0" x2="277.8" y2="700.0" stroke="#ffffff" stroke-width="2.4"/>
<text x="836" y="693.0" font-size="10.5" fill="#898781" style="font-variant-numeric:tabular-nums">n=4</text>
</svg>