<svg xmlns:xlink="http://www.w3.org/1999/xlink" width="17" height="16" viewBox="0 0 17 16" fill="none" xmlns="http://www.w3.org/2000/svg" role="presentation" class="h-5 w-5 text-fg1"><path d="M8.61077 0H5.94254V2.66666H8.61077V0Z" fill="#CCCCCC"></path><path d="M13.9493 0H11.2811V2.66666H13.9493V0Z" fill="#CCCCCC"></path><path d="M5.94149 2.66675H3.27325V5.33341H5.94149V2.66675Z" fill="#CCCCCC"></path><path d="M11.28 2.66675H8.61176V5.33341H11.28V2.66675Z" fill="#CCCCCC"></path><path d="M16.6187 2.66675H13.9504V5.33341H16.6187V2.66675Z" fill="#CCCCCC"></path><path d="M3.27221 5.33325H0.603973V7.99991H3.27221V5.33325Z" fill="#CCCCCC"></path><path d="M8.61077 5.33331H5.94254V7.99997H8.61077V5.33331Z" fill="#CCCCCC"></path><path d="M3.27221 8.00012H0.603973V10.6668H3.27221V8.00012Z" fill="#CCCCCC"></path><path d="M8.61077 8.00012H5.94254V10.6668H8.61077V8.00012Z" fill="#CCCCCC"></path><path d="M5.94149 10.6666H3.27325V13.3332H5.94149V10.6666Z" fill="#CCCCCC"></path><path d="M11.28 10.6666H8.61176V13.3332H11.28V10.6666Z" fill="#CCCCCC"></path><path d="M16.6187 10.6666H13.9504V13.3332H16.6187V10.6666Z" fill="#CCCCCC"></path><path d="M8.61077 13.3333H5.94254V16H8.61077V13.3333Z" fill="#CCCCCC"></path><path d="M13.9493 13.3333H11.2811V16H13.9493V13.3333Z" fill="#CCCCCC"></path></svg>