<svg xmlns:xlink="http://www.w3.org/1999/xlink" viewBox="0 0 48 48" fill="none" xmlns="http://www.w3.org/2000/svg" class="h-5 w-5 text-fg1" role="presentation" width="48"  height="48" ><path fill-rule="evenodd" clip-rule="evenodd" fill="#CCCCCC" d="M30.1574 0.740479C30.9676 0.740479 31.6169 1.39923 31.6944 2.20567C32.3853 9.39891 38.1102 15.1234 45.3039 15.8142C46.1104 15.8917 46.7692 16.541 46.7692 17.3511V30.8959C46.7692 31.706 46.1104 32.3553 45.3039 32.4328C38.1102 33.1236 32.3853 38.8481 31.6944 46.0414C31.6169 46.8478 30.9676 47.5065 30.1574 47.5065H16.6118C15.8016 47.5065 15.1523 46.8478 15.0748 46.0414C14.384 38.8481 8.65901 33.1236 1.46528 32.4328C0.658799 32.3553 0 31.706 0 30.8959V17.3511C0 16.541 0.658803 15.8917 1.46529 15.8142C8.65902 15.1234 14.384 9.39891 15.0748 2.20567C15.1523 1.39923 15.8016 0.740479 16.6118 0.740479H30.1574ZM9.39037 24.0839C9.39037 31.865 15.6915 38.1728 23.4644 38.1728C31.2373 38.1728 37.5385 31.865 37.5385 24.0839C37.5385 16.3028 31.2373 9.99498 23.4644 9.99498C15.6915 9.99498 9.39037 16.3028 9.39037 24.0839Z"></path></svg>