<svg xmlns:xlink="http://www.w3.org/1999/xlink" xmlns="http://www.w3.org/2000/svg" width="16" height="16" viewBox="0 0 16 16" role="presentation" class="text-fg1 h-5 w-5"><path fill="oklch(0.845 0 0)" d="M10.77 9.16a.2.2 0 0 1 .19.1l.77 1.04.08.12H3.26q-.1 0-.21.02-.22.06-.23.25c0 .1.1.22.24.25l.22.02h8.5c.8 0 1.41.5 1.56 1.28.12.63-.22 1.27-.84 1.6q-.37.17-.78.16l-3.75-.03q-1.23 0-2.47-.02-.08 0-.12-.04l-.88-1.17h7.35a.3.3 0 0 0 .24-.27.3.3 0 0 0-.26-.26H3.2c-.7 0-1.35-.43-1.56-1.03-.28-.8.15-1.64.98-1.91q.27-.1.58-.1z"></path><path fill="oklch(0.845 0 0)" d="M3.3 5.59q.05 0 .09.03l.88 1.22H1.62q-.34 0-.35.27.01.26.34.27h12.8c.8 0 1.43.5 1.57 1.28a1.53 1.53 0 0 1-1.63 1.76H12.6q-.08 0-.14-.05l-.88-1.16-.02-.04h2.83q.26 0 .32-.18a.27.27 0 0 0-.23-.36H1.58a1.52 1.52 0 0 1-.12-3.04q.92-.01 1.84 0"></path><path fill="oklch(0.845 0 0)" d="M10.64 2q.08 0 .11.04l.88 1.22h-7.4c-.23 0-.36.14-.31.32q.04.19.24.21h8.74c.88 0 1.57.7 1.55 1.57-.02.8-.7 1.47-1.5 1.47h-7.9q-.09 0-.13-.05-.44-.58-.87-1.2h8.8q.3 0 .33-.25a.25.25 0 0 0-.21-.27l-.18-.02h-8.6q-.97-.01-1.4-.86-.41-.88.22-1.64Q3.46 2 4.15 2z"></path></svg>