<svg xmlns:xlink="http://www.w3.org/1999/xlink" width="34" height="34" viewBox="0 0 17.5 17.5" fill="currentcolor" xmlns="http://www.w3.org/2000/svg" role="presentation" class="h-5 w-5 text-fg1"><path transform="translate(1.25 0)" d="m0 14.866 2.1606-3.5214c1.8927 1.2576 3.9669 1.8995 5.6694 1.8995 1.0025 0 1.4606-0.3036 1.4606-0.8847v-0.0607c0-0.6419-0.9161-0.9194-2.6532-1.4138-3.2582-0.8587-5.8509-1.9602-5.8509-5.2995v-0.06938c0-3.5214 2.8088-5.4903 6.6114-5.4903 2.4112 0 4.9089 0.70255 6.8016 1.9342l-1.9791 3.6775c-1.7112-0.95408-3.5693-1.5352-4.8744-1.5352-0.88152 0-1.3396 0.33827-1.3396 0.79796v0.06071c0 0.64184 0.94202 0.95409 2.6792 1.4745 3.2582 0.91939 5.8509 2.0556 5.8509 5.2735v0.0607c0 3.6515-2.7137 5.551-6.741 5.551-2.7656-0.0087-5.5052-0.798-7.7955-2.4546z" fill="#CCCCCC"></path></svg>