<svg xmlns:xlink="http://www.w3.org/1999/xlink" width="28" height="28" viewBox="0 0 28 28" fill="none" xmlns="http://www.w3.org/2000/svg" role="presentation" class="h-5 w-5 text-fg1"><path d="M14.5507 0.00031822C9.32542 -0.0423122 5.05094 4.20368 5.00045 9.49838C4.94996 14.7931 9.14871 19.1243 14.374 19.1755C14.4329 19.1755 14.4918 19.1755 14.5507 19.1755H17.664V15.586H14.5507C11.286 15.6286 8.6102 12.977 8.56813 9.66891C8.52605 6.36078 11.1429 3.64949 14.4077 3.60685C14.4497 3.60685 14.5002 3.60685 14.5423 3.60685C17.7986 3.60685 20.466 6.29257 20.466 9.6007V18.4252C20.466 21.7077 17.8323 24.3764 14.6012 24.419C13.053 24.402 11.5805 23.7796 10.4866 22.6627L7.97912 25.1949C9.72089 26.9683 12.0769 27.9744 14.5423 28H14.6685C19.8265 27.9233 23.9748 23.6858 24 18.4593V9.35344C23.8738 4.15252 19.675 0.00884431 14.5507 0.00031822Z" fill="#CCCCCC"></path></svg>