<?xml version="1.0" encoding="UTF-8" standalone="no"?>
<!DOCTYPE svg PUBLIC "-//W3C//DTD SVG 1.1//EN"
 "http://www.w3.org/Graphics/SVG/1.1/DTD/svg11.dtd">
<!-- Generated by graphviz version 2.47.0 (20210316.0004)
 -->
<!-- Title: dependencies Pages: 1 -->
<svg width="3333pt" height="284pt"
 viewBox="0.00 0.00 3333.00 284.00" xmlns="http://www.w3.org/2000/svg" xmlns:xlink="http://www.w3.org/1999/xlink">
<g id="graph0" class="graph" transform="scale(1 1) rotate(0) translate(4 280)">
<title>dependencies</title>
<polygon fill="white" stroke="transparent" points="-4,4 -4,-280 3329,-280 3329,4 -4,4"/>
<text text-anchor="start" x="1641.51" y="-42.4" font-family="Times-12" font-weight="bold" font-size="14.00">Legend</text>
<polygon fill="#ffffb3" stroke="transparent" points="1428.5,-10 1428.5,-30 1448.5,-30 1448.5,-10 1428.5,-10"/>
<text text-anchor="start" x="1452.13" y="-15.4" font-family="Times-12" font-size="14.00"> &#160;Declarations</text>
<polygon fill="#8dd3c7" stroke="transparent" points="1541.5,-10 1541.5,-30 1561.5,-30 1561.5,-10 1541.5,-10"/>
<text text-anchor="start" x="1565.23" y="-15.4" font-family="Times-12" font-size="14.00"> &#160;Module</text>
<polygon fill="#80b1d3" stroke="transparent" points="1627.5,-10 1627.5,-30 1647.5,-30 1647.5,-10 1627.5,-10"/>
<text text-anchor="start" x="1651.28" y="-15.4" font-family="Times-12" font-size="14.00"> &#160;Bootstrap</text>
<polygon fill="#fdb462" stroke="transparent" points="1724.5,-10 1724.5,-30 1744.5,-30 1744.5,-10 1724.5,-10"/>
<text text-anchor="start" x="1748.17" y="-15.4" font-family="Times-12" font-size="14.00"> &#160;Providers</text>
<polygon fill="#fb8072" stroke="transparent" points="1820.5,-10 1820.5,-30 1840.5,-30 1840.5,-10 1820.5,-10"/>
<text text-anchor="start" x="1844.23" y="-15.4" font-family="Times-12" font-size="14.00"> &#160;Exports</text>
<g id="clust1" class="cluster">
<title>cluster_OpenViduComponentsDirectiveModule</title>
<polygon fill="none" stroke="black" stroke-dasharray="1,5" points="8,-70 8,-268 3317,-268 3317,-70 8,-70"/>
</g>
<g id="clust2" class="cluster">
<title>cluster_OpenViduComponentsDirectiveModule_declarations</title>
<polygon fill="none" stroke="black" points="43,-78 43,-130 3280,-130 3280,-78 43,-78"/>
</g>
<g id="clust21" class="cluster">
<title>cluster_OpenViduComponentsDirectiveModule_exports</title>
<polygon fill="none" stroke="black" points="16,-208 16,-260 3309,-260 3309,-208 16,-208"/>
</g>
<!-- ActivitiesPanelDirective -->
<g id="node1" class="node">
<title>ActivitiesPanelDirective</title>
<polygon fill="#ffffb3" stroke="black" points="3271.62,-122 3118.38,-122 3118.38,-86 3271.62,-86 3271.62,-122"/>
<text text-anchor="middle" x="3195" y="-99.8" font-family="Times,serif" font-size="14.00">ActivitiesPanelDirective</text>
</g>
<!-- OpenViduComponentsDirectiveModule -->
<g id="node18" class="node">
<title>OpenViduComponentsDirectiveModule</title>
<polygon fill="#8dd3c7" stroke="black" points="1861.23,-187 1858.23,-191 1837.23,-191 1834.23,-187 1620.77,-187 1620.77,-151 1861.23,-151 1861.23,-187"/>
<text text-anchor="middle" x="1741" y="-164.8" font-family="Times,serif" font-size="14.00">OpenViduComponentsDirectiveModule</text>
</g>
<!-- ActivitiesPanelDirective&#45;&gt;OpenViduComponentsDirectiveModule -->
<g id="edge1" class="edge">
<title>ActivitiesPanelDirective&#45;&gt;OpenViduComponentsDirectiveModule</title>
<path fill="none" stroke="black" d="M3134.22,-122.17C3134.22,-141.09 3134.22,-168 3134.22,-168 3134.22,-168 1871.29,-168 1871.29,-168"/>
<polygon fill="black" stroke="black" points="1871.29,-164.5 1861.29,-168 1871.29,-171.5 1871.29,-164.5"/>
</g>
<!-- AdditionalPanelsDirective -->
<g id="node2" class="node">
<title>AdditionalPanelsDirective</title>
<polygon fill="#ffffb3" stroke="black" points="3100.01,-122 2935.99,-122 2935.99,-86 3100.01,-86 3100.01,-122"/>
<text text-anchor="middle" x="3018" y="-99.8" font-family="Times,serif" font-size="14.00">AdditionalPanelsDirective</text>
</g>
<!-- AdditionalPanelsDirective&#45;&gt;OpenViduComponentsDirectiveModule -->
<g id="edge2" class="edge">
<title>AdditionalPanelsDirective&#45;&gt;OpenViduComponentsDirectiveModule</title>
<path fill="none" stroke="black" d="M2947.78,-122.27C2947.78,-140.56 2947.78,-166 2947.78,-166 2947.78,-166 1871.4,-166 1871.4,-166"/>
<polygon fill="black" stroke="black" points="1871.4,-162.5 1861.4,-166 1871.4,-169.5 1871.4,-162.5"/>
</g>
<!-- ChatPanelDirective -->
<g id="node3" class="node">
<title>ChatPanelDirective</title>
<polygon fill="#ffffb3" stroke="black" points="2917.63,-122 2792.37,-122 2792.37,-86 2917.63,-86 2917.63,-122"/>
<text text-anchor="middle" x="2855" y="-99.8" font-family="Times,serif" font-size="14.00">ChatPanelDirective</text>
</g>
<!-- ChatPanelDirective&#45;&gt;OpenViduComponentsDirectiveModule -->
<g id="edge3" class="edge">
<title>ChatPanelDirective&#45;&gt;OpenViduComponentsDirectiveModule</title>
<path fill="none" stroke="black" d="M2800.81,-122.02C2800.81,-139.37 2800.81,-163 2800.81,-163 2800.81,-163 1871.28,-163 1871.28,-163"/>
<polygon fill="black" stroke="black" points="1871.28,-159.5 1861.28,-163 1871.28,-166.5 1871.28,-159.5"/>
</g>
<!-- LayoutAdditionalElementsDirective -->
<g id="node4" class="node">
<title>LayoutAdditionalElementsDirective</title>
<polygon fill="#ffffb3" stroke="black" points="2773.72,-122 2554.28,-122 2554.28,-86 2773.72,-86 2773.72,-122"/>
<text text-anchor="middle" x="2664" y="-99.8" font-family="Times,serif" font-size="14.00">LayoutAdditionalElementsDirective</text>
</g>
<!-- LayoutAdditionalElementsDirective&#45;&gt;OpenViduComponentsDirectiveModule -->
<g id="edge4" class="edge">
<title>LayoutAdditionalElementsDirective&#45;&gt;OpenViduComponentsDirectiveModule</title>
<path fill="none" stroke="black" d="M2561.26,-122.04C2561.26,-138.73 2561.26,-161 2561.26,-161 2561.26,-161 1871.59,-161 1871.59,-161"/>
<polygon fill="black" stroke="black" points="1871.59,-157.5 1861.59,-161 1871.59,-164.5 1871.59,-157.5"/>
</g>
<!-- LayoutDirective -->
<g id="node5" class="node">
<title>LayoutDirective</title>
<polygon fill="#ffffb3" stroke="black" points="2535.74,-122 2428.26,-122 2428.26,-86 2535.74,-86 2535.74,-122"/>
<text text-anchor="middle" x="2482" y="-99.8" font-family="Times,serif" font-size="14.00">LayoutDirective</text>
</g>
<!-- LayoutDirective&#45;&gt;OpenViduComponentsDirectiveModule -->
<g id="edge5" class="edge">
<title>LayoutDirective&#45;&gt;OpenViduComponentsDirectiveModule</title>
<path fill="none" stroke="black" d="M2433.75,-122.01C2433.75,-138.05 2433.75,-159 2433.75,-159 2433.75,-159 1871.27,-159 1871.27,-159"/>
<polygon fill="black" stroke="black" points="1871.27,-155.5 1861.27,-159 1871.27,-162.5 1871.27,-155.5"/>
</g>
<!-- LeaveButtonDirective -->
<g id="node6" class="node">
<title>LeaveButtonDirective</title>
<polygon fill="#ffffb3" stroke="black" points="2410.4,-122 2269.6,-122 2269.6,-86 2410.4,-86 2410.4,-122"/>
<text text-anchor="middle" x="2340" y="-99.8" font-family="Times,serif" font-size="14.00">LeaveButtonDirective</text>
</g>
<!-- LeaveButtonDirective&#45;&gt;OpenViduComponentsDirectiveModule -->
<g id="edge6" class="edge">
<title>LeaveButtonDirective&#45;&gt;OpenViduComponentsDirectiveModule</title>
<path fill="none" stroke="black" d="M2273.43,-122.19C2273.43,-137.18 2273.43,-156 2273.43,-156 2273.43,-156 1871.48,-156 1871.48,-156"/>
<polygon fill="black" stroke="black" points="1871.48,-152.5 1861.48,-156 1871.48,-159.5 1871.48,-152.5"/>
</g>
<!-- PanelDirective -->
<g id="node7" class="node">
<title>PanelDirective</title>
<polygon fill="#ffffb3" stroke="black" points="2251.69,-122 2152.31,-122 2152.31,-86 2251.69,-86 2251.69,-122"/>
<text text-anchor="middle" x="2202" y="-99.8" font-family="Times,serif" font-size="14.00">PanelDirective</text>
</g>
<!-- PanelDirective&#45;&gt;OpenViduComponentsDirectiveModule -->
<g id="edge7" class="edge">
<title>PanelDirective&#45;&gt;OpenViduComponentsDirectiveModule</title>
<path fill="none" stroke="black" d="M2219.95,-122.05C2219.95,-136.37 2219.95,-154 2219.95,-154 2219.95,-154 1871.24,-154 1871.24,-154"/>
<polygon fill="black" stroke="black" points="1871.24,-150.5 1861.24,-154 1871.24,-157.5 1871.24,-150.5"/>
</g>
<!-- ParticipantPanelAfterLocalParticipantDirective -->
<g id="node8" class="node">
<title>ParticipantPanelAfterLocalParticipantDirective</title>
<polygon fill="#ffffb3" stroke="black" points="2133.89,-122 1852.11,-122 1852.11,-86 2133.89,-86 2133.89,-122"/>
<text text-anchor="middle" x="1993" y="-99.8" font-family="Times,serif" font-size="14.00">ParticipantPanelAfterLocalParticipantDirective</text>
</g>
<!-- ParticipantPanelAfterLocalParticipantDirective&#45;&gt;OpenViduComponentsDirectiveModule -->
<g id="edge8" class="edge">
<title>ParticipantPanelAfterLocalParticipantDirective&#45;&gt;OpenViduComponentsDirectiveModule</title>
<path fill="none" stroke="black" d="M1856.71,-122.11C1856.71,-122.11 1856.71,-140.99 1856.71,-140.99"/>
<polygon fill="black" stroke="black" points="1853.21,-140.99 1856.71,-150.99 1860.21,-140.99 1853.21,-140.99"/>
</g>
<!-- ParticipantPanelItemDirective -->
<g id="node9" class="node">
<title>ParticipantPanelItemDirective</title>
<polygon fill="#ffffb3" stroke="black" points="1833.99,-122 1648.01,-122 1648.01,-86 1833.99,-86 1833.99,-122"/>
<text text-anchor="middle" x="1741" y="-99.8" font-family="Times,serif" font-size="14.00">ParticipantPanelItemDirective</text>
</g>
<!-- ParticipantPanelItemDirective&#45;&gt;OpenViduComponentsDirectiveModule -->
<g id="edge9" class="edge">
<title>ParticipantPanelItemDirective&#45;&gt;OpenViduComponentsDirectiveModule</title>
<path fill="none" stroke="black" d="M1741,-122.11C1741,-122.11 1741,-140.99 1741,-140.99"/>
<polygon fill="black" stroke="black" points="1737.5,-140.99 1741,-150.99 1744.5,-140.99 1737.5,-140.99"/>
</g>
<!-- ParticipantPanelItemElementsDirective -->
<g id="node10" class="node">
<title>ParticipantPanelItemElementsDirective</title>
<polygon fill="#ffffb3" stroke="black" points="1629.59,-122 1392.41,-122 1392.41,-86 1629.59,-86 1629.59,-122"/>
<text text-anchor="middle" x="1511" y="-99.8" font-family="Times,serif" font-size="14.00">ParticipantPanelItemElementsDirective</text>
</g>
<!-- ParticipantPanelItemElementsDirective&#45;&gt;OpenViduComponentsDirectiveModule -->
<g id="edge10" class="edge">
<title>ParticipantPanelItemElementsDirective&#45;&gt;OpenViduComponentsDirectiveModule</title>
<path fill="none" stroke="black" d="M1625.22,-122.11C1625.22,-122.11 1625.22,-140.99 1625.22,-140.99"/>
<polygon fill="black" stroke="black" points="1621.72,-140.99 1625.22,-150.99 1628.72,-140.99 1621.72,-140.99"/>
</g>
<!-- ParticipantPanelParticipantBadgeDirective -->
<g id="node11" class="node">
<title>ParticipantPanelParticipantBadgeDirective</title>
<polygon fill="#ffffb3" stroke="black" points="1374.25,-122 1117.75,-122 1117.75,-86 1374.25,-86 1374.25,-122"/>
<text text-anchor="middle" x="1246" y="-99.8" font-family="Times,serif" font-size="14.00">ParticipantPanelParticipantBadgeDirective</text>
</g>
<!-- ParticipantPanelParticipantBadgeDirective&#45;&gt;OpenViduComponentsDirectiveModule -->
<g id="edge11" class="edge">
<title>ParticipantPanelParticipantBadgeDirective&#45;&gt;OpenViduComponentsDirectiveModule</title>
<path fill="none" stroke="black" d="M1285.87,-122.05C1285.87,-136.37 1285.87,-154 1285.87,-154 1285.87,-154 1610.53,-154 1610.53,-154"/>
<polygon fill="black" stroke="black" points="1610.53,-157.5 1620.53,-154 1610.53,-150.5 1610.53,-157.5"/>
</g>
<!-- ParticipantsPanelDirective -->
<g id="node12" class="node">
<title>ParticipantsPanelDirective</title>
<polygon fill="#ffffb3" stroke="black" points="1099.78,-122 934.22,-122 934.22,-86 1099.78,-86 1099.78,-122"/>
<text text-anchor="middle" x="1017" y="-99.8" font-family="Times,serif" font-size="14.00">ParticipantsPanelDirective</text>
</g>
<!-- ParticipantsPanelDirective&#45;&gt;OpenViduComponentsDirectiveModule -->
<g id="edge12" class="edge">
<title>ParticipantsPanelDirective&#45;&gt;OpenViduComponentsDirectiveModule</title>
<path fill="none" stroke="black" d="M1096.01,-122.19C1096.01,-137.18 1096.01,-156 1096.01,-156 1096.01,-156 1610.44,-156 1610.44,-156"/>
<polygon fill="black" stroke="black" points="1610.44,-159.5 1620.44,-156 1610.44,-152.5 1610.44,-159.5"/>
</g>
<!-- PreJoinDirective -->
<g id="node13" class="node">
<title>PreJoinDirective</title>
<polygon fill="#ffffb3" stroke="black" points="916.08,-122 805.92,-122 805.92,-86 916.08,-86 916.08,-122"/>
<text text-anchor="middle" x="861" y="-99.8" font-family="Times,serif" font-size="14.00">PreJoinDirective</text>
</g>
<!-- PreJoinDirective&#45;&gt;OpenViduComponentsDirectiveModule -->
<g id="edge13" class="edge">
<title>PreJoinDirective&#45;&gt;OpenViduComponentsDirectiveModule</title>
<path fill="none" stroke="black" d="M910.91,-122.01C910.91,-138.05 910.91,-159 910.91,-159 910.91,-159 1610.74,-159 1610.74,-159"/>
<polygon fill="black" stroke="black" points="1610.74,-162.5 1620.74,-159 1610.74,-155.5 1610.74,-162.5"/>
</g>
<!-- StreamDirective -->
<g id="node14" class="node">
<title>StreamDirective</title>
<polygon fill="#ffffb3" stroke="black" points="787.74,-122 680.26,-122 680.26,-86 787.74,-86 787.74,-122"/>
<text text-anchor="middle" x="734" y="-99.8" font-family="Times,serif" font-size="14.00">StreamDirective</text>
</g>
<!-- StreamDirective&#45;&gt;OpenViduComponentsDirectiveModule -->
<g id="edge14" class="edge">
<title>StreamDirective&#45;&gt;OpenViduComponentsDirectiveModule</title>
<path fill="none" stroke="black" d="M781.24,-122.04C781.24,-138.73 781.24,-161 781.24,-161 781.24,-161 1610.42,-161 1610.42,-161"/>
<polygon fill="black" stroke="black" points="1610.42,-164.5 1620.42,-161 1610.42,-157.5 1610.42,-164.5"/>
</g>
<!-- ToolbarAdditionalButtonsDirective -->
<g id="node15" class="node">
<title>ToolbarAdditionalButtonsDirective</title>
<polygon fill="#ffffb3" stroke="black" points="661.85,-122 446.15,-122 446.15,-86 661.85,-86 661.85,-122"/>
<text text-anchor="middle" x="554" y="-99.8" font-family="Times,serif" font-size="14.00">ToolbarAdditionalButtonsDirective</text>
</g>
<!-- ToolbarAdditionalButtonsDirective&#45;&gt;OpenViduComponentsDirectiveModule -->
<g id="edge15" class="edge">
<title>ToolbarAdditionalButtonsDirective&#45;&gt;OpenViduComponentsDirectiveModule</title>
<path fill="none" stroke="black" d="M653.8,-122.02C653.8,-139.37 653.8,-163 653.8,-163 653.8,-163 1610.76,-163 1610.76,-163"/>
<polygon fill="black" stroke="black" points="1610.76,-166.5 1620.76,-163 1610.76,-159.5 1610.76,-166.5"/>
</g>
<!-- ToolbarAdditionalPanelButtonsDirective -->
<g id="node16" class="node">
<title>ToolbarAdditionalPanelButtonsDirective</title>
<polygon fill="#ffffb3" stroke="black" points="428.45,-122 181.55,-122 181.55,-86 428.45,-86 428.45,-122"/>
<text text-anchor="middle" x="305" y="-99.8" font-family="Times,serif" font-size="14.00">ToolbarAdditionalPanelButtonsDirective</text>
</g>
<!-- ToolbarAdditionalPanelButtonsDirective&#45;&gt;OpenViduComponentsDirectiveModule -->
<g id="edge16" class="edge">
<title>ToolbarAdditionalPanelButtonsDirective&#45;&gt;OpenViduComponentsDirectiveModule</title>
<path fill="none" stroke="black" d="M417.28,-122.27C417.28,-140.56 417.28,-166 417.28,-166 417.28,-166 1610.61,-166 1610.61,-166"/>
<polygon fill="black" stroke="black" points="1610.61,-169.5 1620.61,-166 1610.61,-162.5 1610.61,-169.5"/>
</g>
<!-- ToolbarDirective -->
<g id="node17" class="node">
<title>ToolbarDirective</title>
<polygon fill="#ffffb3" stroke="black" points="163.4,-122 50.6,-122 50.6,-86 163.4,-86 163.4,-122"/>
<text text-anchor="middle" x="107" y="-99.8" font-family="Times,serif" font-size="14.00">ToolbarDirective</text>
</g>
<!-- ToolbarDirective&#45;&gt;OpenViduComponentsDirectiveModule -->
<g id="edge17" class="edge">
<title>ToolbarDirective&#45;&gt;OpenViduComponentsDirectiveModule</title>
<path fill="none" stroke="black" d="M148.86,-122.17C148.86,-141.09 148.86,-168 148.86,-168 148.86,-168 1610.68,-168 1610.68,-168"/>
<polygon fill="black" stroke="black" points="1610.68,-171.5 1620.68,-168 1610.68,-164.5 1610.68,-171.5"/>
</g>
<!-- ActivitiesPanelDirective  -->
<g id="node19" class="node">
<title>ActivitiesPanelDirective </title>
<polygon fill="#fb8072" stroke="black" points="3300.62,-252 3143.38,-252 3143.38,-216 3300.62,-216 3300.62,-252"/>
<text text-anchor="middle" x="3222" y="-229.8" font-family="Times,serif" font-size="14.00">ActivitiesPanelDirective </text>
</g>
<!-- OpenViduComponentsDirectiveModule&#45;&gt;ActivitiesPanelDirective  -->
<g id="edge18" class="edge">
<title>OpenViduComponentsDirectiveModule&#45;&gt;ActivitiesPanelDirective </title>
<path fill="none" stroke="black" stroke-dasharray="5,2" d="M1861.33,-171C2211.88,-171 3207.62,-171 3207.62,-171 3207.62,-171 3207.62,-205.78 3207.62,-205.78"/>
<polygon fill="black" stroke="black" points="3204.13,-205.78 3207.62,-215.78 3211.13,-205.78 3204.13,-205.78"/>
</g>
<!-- AdditionalPanelsDirective  -->
<g id="node20" class="node">
<title>AdditionalPanelsDirective </title>
<polygon fill="#fb8072" stroke="black" points="3125.01,-252 2956.99,-252 2956.99,-216 3125.01,-216 3125.01,-252"/>
<text text-anchor="middle" x="3041" y="-229.8" font-family="Times,serif" font-size="14.00">AdditionalPanelsDirective </text>
</g>
<!-- OpenViduComponentsDirectiveModule&#45;&gt;AdditionalPanelsDirective  -->
<g id="edge19" class="edge">
<title>OpenViduComponentsDirectiveModule&#45;&gt;AdditionalPanelsDirective </title>
<path fill="none" stroke="black" stroke-dasharray="5,2" d="M1861.27,-173C2181.14,-173 3028.62,-173 3028.62,-173 3028.62,-173 3028.62,-205.7 3028.62,-205.7"/>
<polygon fill="black" stroke="black" points="3025.13,-205.7 3028.62,-215.7 3032.13,-205.7 3025.13,-205.7"/>
</g>
<!-- ChatPanelDirective  -->
<g id="node21" class="node">
<title>ChatPanelDirective </title>
<polygon fill="#fb8072" stroke="black" points="2938.63,-252 2809.37,-252 2809.37,-216 2938.63,-216 2938.63,-252"/>
<text text-anchor="middle" x="2874" y="-229.8" font-family="Times,serif" font-size="14.00">ChatPanelDirective </text>
</g>
<!-- OpenViduComponentsDirectiveModule&#45;&gt;ChatPanelDirective  -->
<g id="edge20" class="edge">
<title>OpenViduComponentsDirectiveModule&#45;&gt;ChatPanelDirective </title>
<path fill="none" stroke="black" stroke-dasharray="5,2" d="M1861.41,-175C2151.18,-175 2863.62,-175 2863.62,-175 2863.62,-175 2863.62,-205.98 2863.62,-205.98"/>
<polygon fill="black" stroke="black" points="2860.13,-205.98 2863.62,-215.98 2867.13,-205.98 2860.13,-205.98"/>
</g>
<!-- LayoutAdditionalElementsDirective  -->
<g id="node22" class="node">
<title>LayoutAdditionalElementsDirective </title>
<polygon fill="#fb8072" stroke="black" points="2791.72,-252 2568.28,-252 2568.28,-216 2791.72,-216 2791.72,-252"/>
<text text-anchor="middle" x="2680" y="-229.8" font-family="Times,serif" font-size="14.00">LayoutAdditionalElementsDirective </text>
</g>
<!-- OpenViduComponentsDirectiveModule&#45;&gt;LayoutAdditionalElementsDirective  -->
<g id="edge21" class="edge">
<title>OpenViduComponentsDirectiveModule&#45;&gt;LayoutAdditionalElementsDirective </title>
<path fill="none" stroke="black" stroke-dasharray="5,2" d="M1861.64,-178C2113.31,-178 2671.12,-178 2671.12,-178 2671.12,-178 2671.12,-205.97 2671.12,-205.97"/>
<polygon fill="black" stroke="black" points="2667.63,-205.97 2671.12,-215.97 2674.63,-205.97 2667.63,-205.97"/>
</g>
<!-- LayoutDirective  -->
<g id="node23" class="node">
<title>LayoutDirective </title>
<polygon fill="#fb8072" stroke="black" points="2550.74,-252 2439.26,-252 2439.26,-216 2550.74,-216 2550.74,-252"/>
<text text-anchor="middle" x="2495" y="-229.8" font-family="Times,serif" font-size="14.00">LayoutDirective </text>
</g>
<!-- OpenViduComponentsDirectiveModule&#45;&gt;LayoutDirective  -->
<g id="edge22" class="edge">
<title>OpenViduComponentsDirectiveModule&#45;&gt;LayoutDirective </title>
<path fill="none" stroke="black" stroke-dasharray="5,2" d="M1861.37,-180C2072.56,-180 2487.62,-180 2487.62,-180 2487.62,-180 2487.62,-205.72 2487.62,-205.72"/>
<polygon fill="black" stroke="black" points="2484.13,-205.72 2487.62,-215.72 2491.13,-205.72 2484.13,-205.72"/>
</g>
<!-- LeaveButtonDirective  -->
<g id="node24" class="node">
<title>LeaveButtonDirective </title>
<polygon fill="#fb8072" stroke="black" points="2420.9,-252 2277.1,-252 2277.1,-216 2420.9,-216 2420.9,-252"/>
<text text-anchor="middle" x="2349" y="-229.8" font-family="Times,serif" font-size="14.00">LeaveButtonDirective </text>
</g>
<!-- OpenViduComponentsDirectiveModule&#45;&gt;LeaveButtonDirective  -->
<g id="edge23" class="edge">
<title>OpenViduComponentsDirectiveModule&#45;&gt;LeaveButtonDirective </title>
<path fill="none" stroke="black" stroke-dasharray="5,2" d="M1861.5,-183C2037.36,-183 2343.62,-183 2343.62,-183 2343.62,-183 2343.62,-205.88 2343.62,-205.88"/>
<polygon fill="black" stroke="black" points="2340.13,-205.88 2343.62,-215.88 2347.13,-205.88 2340.13,-205.88"/>
</g>
<!-- PanelDirective  -->
<g id="node25" class="node">
<title>PanelDirective </title>
<polygon fill="#fb8072" stroke="black" points="2259.19,-252 2156.81,-252 2156.81,-216 2259.19,-216 2259.19,-252"/>
<text text-anchor="middle" x="2208" y="-229.8" font-family="Times,serif" font-size="14.00">PanelDirective </text>
</g>
<!-- OpenViduComponentsDirectiveModule&#45;&gt;PanelDirective  -->
<g id="edge24" class="edge">
<title>OpenViduComponentsDirectiveModule&#45;&gt;PanelDirective </title>
<path fill="none" stroke="black" stroke-dasharray="5,2" d="M1861.46,-185C1993.94,-185 2188.3,-185 2188.3,-185 2188.3,-185 2188.3,-205.75 2188.3,-205.75"/>
<polygon fill="black" stroke="black" points="2184.8,-205.75 2188.3,-215.75 2191.8,-205.75 2184.8,-205.75"/>
</g>
<!-- ParticipantPanelAfterLocalParticipantDirective  -->
<g id="node26" class="node">
<title>ParticipantPanelAfterLocalParticipantDirective </title>
<polygon fill="#fb8072" stroke="black" points="2138.89,-252 1853.11,-252 1853.11,-216 2138.89,-216 2138.89,-252"/>
<text text-anchor="middle" x="1996" y="-229.8" font-family="Times,serif" font-size="14.00">ParticipantPanelAfterLocalParticipantDirective </text>
</g>
<!-- OpenViduComponentsDirectiveModule&#45;&gt;ParticipantPanelAfterLocalParticipantDirective  -->
<g id="edge25" class="edge">
<title>OpenViduComponentsDirectiveModule&#45;&gt;ParticipantPanelAfterLocalParticipantDirective </title>
<path fill="none" stroke="black" stroke-dasharray="5,2" d="M1857.33,-187.11C1857.33,-187.11 1857.33,-205.99 1857.33,-205.99"/>
<polygon fill="black" stroke="black" points="1853.83,-205.99 1857.33,-215.99 1860.83,-205.99 1853.83,-205.99"/>
</g>
<!-- ParticipantPanelItemDirective  -->
<g id="node27" class="node">
<title>ParticipantPanelItemDirective </title>
<polygon fill="#fb8072" stroke="black" points="1835.49,-252 1646.51,-252 1646.51,-216 1835.49,-216 1835.49,-252"/>
<text text-anchor="middle" x="1741" y="-229.8" font-family="Times,serif" font-size="14.00">ParticipantPanelItemDirective </text>
</g>
<!-- OpenViduComponentsDirectiveModule&#45;&gt;ParticipantPanelItemDirective  -->
<g id="edge26" class="edge">
<title>OpenViduComponentsDirectiveModule&#45;&gt;ParticipantPanelItemDirective </title>
<path fill="none" stroke="black" stroke-dasharray="5,2" d="M1741,-187.11C1741,-187.11 1741,-205.99 1741,-205.99"/>
<polygon fill="black" stroke="black" points="1737.5,-205.99 1741,-215.99 1744.5,-205.99 1737.5,-205.99"/>
</g>
<!-- ParticipantPanelItemElementsDirective  -->
<g id="node28" class="node">
<title>ParticipantPanelItemElementsDirective </title>
<polygon fill="#fb8072" stroke="black" points="1628.59,-252 1387.41,-252 1387.41,-216 1628.59,-216 1628.59,-252"/>
<text text-anchor="middle" x="1508" y="-229.8" font-family="Times,serif" font-size="14.00">ParticipantPanelItemElementsDirective </text>
</g>
<!-- OpenViduComponentsDirectiveModule&#45;&gt;ParticipantPanelItemElementsDirective  -->
<g id="edge27" class="edge">
<title>OpenViduComponentsDirectiveModule&#45;&gt;ParticipantPanelItemElementsDirective </title>
<path fill="none" stroke="black" stroke-dasharray="5,2" d="M1624.59,-187.11C1624.59,-187.11 1624.59,-205.99 1624.59,-205.99"/>
<polygon fill="black" stroke="black" points="1621.09,-205.99 1624.59,-215.99 1628.09,-205.99 1621.09,-205.99"/>
</g>
<!-- ParticipantPanelParticipantBadgeDirective  -->
<g id="node29" class="node">
<title>ParticipantPanelParticipantBadgeDirective </title>
<polygon fill="#fb8072" stroke="black" points="1369.75,-252 1110.25,-252 1110.25,-216 1369.75,-216 1369.75,-252"/>
<text text-anchor="middle" x="1240" y="-229.8" font-family="Times,serif" font-size="14.00">ParticipantPanelParticipantBadgeDirective </text>
</g>
<!-- OpenViduComponentsDirectiveModule&#45;&gt;ParticipantPanelParticipantBadgeDirective  -->
<g id="edge28" class="edge">
<title>OpenViduComponentsDirectiveModule&#45;&gt;ParticipantPanelParticipantBadgeDirective </title>
<path fill="none" stroke="black" stroke-dasharray="5,2" d="M1620.68,-185C1461.79,-185 1201.88,-185 1201.88,-185 1201.88,-185 1201.88,-205.75 1201.88,-205.75"/>
<polygon fill="black" stroke="black" points="1198.38,-205.75 1201.88,-215.75 1205.38,-205.75 1198.38,-205.75"/>
</g>
<!-- ParticipantsPanelDirective  -->
<g id="node30" class="node">
<title>ParticipantsPanelDirective </title>
<polygon fill="#fb8072" stroke="black" points="1092.28,-252 923.72,-252 923.72,-216 1092.28,-216 1092.28,-252"/>
<text text-anchor="middle" x="1008" y="-229.8" font-family="Times,serif" font-size="14.00">ParticipantsPanelDirective </text>
</g>
<!-- OpenViduComponentsDirectiveModule&#45;&gt;ParticipantsPanelDirective  -->
<g id="edge29" class="edge">
<title>OpenViduComponentsDirectiveModule&#45;&gt;ParticipantsPanelDirective </title>
<path fill="none" stroke="black" stroke-dasharray="5,2" d="M1620.44,-183C1413.65,-183 1013.38,-183 1013.38,-183 1013.38,-183 1013.38,-205.88 1013.38,-205.88"/>
<polygon fill="black" stroke="black" points="1009.88,-205.88 1013.38,-215.88 1016.88,-205.88 1009.88,-205.88"/>
</g>
<!-- PreJoinDirective  -->
<g id="node31" class="node">
<title>PreJoinDirective </title>
<polygon fill="#fb8072" stroke="black" points="905.58,-252 792.42,-252 792.42,-216 905.58,-216 905.58,-252"/>
<text text-anchor="middle" x="849" y="-229.8" font-family="Times,serif" font-size="14.00">PreJoinDirective </text>
</g>
<!-- OpenViduComponentsDirectiveModule&#45;&gt;PreJoinDirective  -->
<g id="edge30" class="edge">
<title>OpenViduComponentsDirectiveModule&#45;&gt;PreJoinDirective </title>
<path fill="none" stroke="black" stroke-dasharray="5,2" d="M1620.71,-180C1378.7,-180 855.88,-180 855.88,-180 855.88,-180 855.88,-205.72 855.88,-205.72"/>
<polygon fill="black" stroke="black" points="852.38,-205.72 855.88,-215.72 859.38,-205.72 852.38,-205.72"/>
</g>
<!-- StreamDirective  -->
<g id="node32" class="node">
<title>StreamDirective </title>
<polygon fill="#fb8072" stroke="black" points="774.74,-252 663.26,-252 663.26,-216 774.74,-216 774.74,-252"/>
<text text-anchor="middle" x="719" y="-229.8" font-family="Times,serif" font-size="14.00">StreamDirective </text>
</g>
<!-- OpenViduComponentsDirectiveModule&#45;&gt;StreamDirective  -->
<g id="edge31" class="edge">
<title>OpenViduComponentsDirectiveModule&#45;&gt;StreamDirective </title>
<path fill="none" stroke="black" stroke-dasharray="5,2" d="M1620.74,-178C1352.24,-178 727.38,-178 727.38,-178 727.38,-178 727.38,-205.97 727.38,-205.97"/>
<polygon fill="black" stroke="black" points="723.88,-205.97 727.38,-215.97 730.88,-205.97 723.88,-205.97"/>
</g>
<!-- ToolbarAdditionalButtonsDirective  -->
<g id="node33" class="node">
<title>ToolbarAdditionalButtonsDirective </title>
<polygon fill="#fb8072" stroke="black" points="645.85,-252 426.15,-252 426.15,-216 645.85,-216 645.85,-252"/>
<text text-anchor="middle" x="536" y="-229.8" font-family="Times,serif" font-size="14.00">ToolbarAdditionalButtonsDirective </text>
</g>
<!-- OpenViduComponentsDirectiveModule&#45;&gt;ToolbarAdditionalButtonsDirective  -->
<g id="edge32" class="edge">
<title>OpenViduComponentsDirectiveModule&#45;&gt;ToolbarAdditionalButtonsDirective </title>
<path fill="none" stroke="black" stroke-dasharray="5,2" d="M1620.66,-175C1317.4,-175 545.88,-175 545.88,-175 545.88,-175 545.88,-205.98 545.88,-205.98"/>
<polygon fill="black" stroke="black" points="542.38,-205.98 545.88,-215.98 549.38,-205.98 542.38,-205.98"/>
</g>
<!-- ToolbarAdditionalPanelButtonsDirective  -->
<g id="node34" class="node">
<title>ToolbarAdditionalPanelButtonsDirective </title>
<polygon fill="#fb8072" stroke="black" points="408.45,-252 157.55,-252 157.55,-216 408.45,-216 408.45,-252"/>
<text text-anchor="middle" x="283" y="-229.8" font-family="Times,serif" font-size="14.00">ToolbarAdditionalPanelButtonsDirective </text>
</g>
<!-- OpenViduComponentsDirectiveModule&#45;&gt;ToolbarAdditionalPanelButtonsDirective  -->
<g id="edge33" class="edge">
<title>OpenViduComponentsDirectiveModule&#45;&gt;ToolbarAdditionalPanelButtonsDirective </title>
<path fill="none" stroke="black" stroke-dasharray="5,2" d="M1620.5,-173C1273.21,-173 294.88,-173 294.88,-173 294.88,-173 294.88,-205.7 294.88,-205.7"/>
<polygon fill="black" stroke="black" points="291.38,-205.7 294.88,-215.7 298.38,-205.7 291.38,-205.7"/>
</g>
<!-- ToolbarDirective  -->
<g id="node35" class="node">
<title>ToolbarDirective </title>
<polygon fill="#fb8072" stroke="black" points="139.9,-252 24.1,-252 24.1,-216 139.9,-216 139.9,-252"/>
<text text-anchor="middle" x="82" y="-229.8" font-family="Times,serif" font-size="14.00">ToolbarDirective </text>
</g>
<!-- OpenViduComponentsDirectiveModule&#45;&gt;ToolbarDirective  -->
<g id="edge34" class="edge">
<title>OpenViduComponentsDirectiveModule&#45;&gt;ToolbarDirective </title>
<path fill="none" stroke="black" stroke-dasharray="5,2" d="M1620.66,-171C1241.3,-171 95.38,-171 95.38,-171 95.38,-171 95.38,-205.78 95.38,-205.78"/>
<polygon fill="black" stroke="black" points="91.88,-205.78 95.38,-215.78 98.88,-205.78 91.88,-205.78"/>
</g>
</g>
</svg>
