<svg xmlns:xlink="http://www.w3.org/1999/xlink" width="26" height="26" viewBox="0 0 26 26" fill="none" xmlns="http://www.w3.org/2000/svg" role="presentation" class="h-5 w-5 text-fg1"><path d="M12.3499 9.29825H13.1945C14.8232 9.29825 16.3856 8.66483 17.5378 7.53746L22.0041 2.46143H19.4019C18.7271 2.46143 18.0856 2.74614 17.6413 3.24104L14.0782 7.21167V0.5H11.6009V7.36166L7.90306 3.24295C7.4578 2.74709 6.81626 2.46239 6.1425 2.46239H3.54218L8.00559 7.53841C9.15782 8.66578 10.7202 9.29921 12.3489 9.29921L12.3499 9.29825Z" fill="#CCCCCC"></path><path d="M13.1965 16.6998H12.3518C10.7231 16.6998 9.16075 17.3333 8.00852 18.4606L3.54218 23.5367H6.14445C6.81919 23.5367 7.46073 23.2519 7.90501 22.7571L11.4681 18.7864V25.5H13.9454V18.6383L17.6423 22.758C18.0876 23.2539 18.7291 23.5376 19.4029 23.5376H22.0032L17.5398 18.4616C16.3875 17.3342 14.8252 16.7008 13.1965 16.7008V16.6998Z" fill="#CCCCCC"></path><path d="M2.00565 19.4866V22.0308L7.19359 17.6637C8.34582 16.5363 8.99321 15.0077 8.99321 13.4141V12.5877C8.99321 10.9941 8.34582 9.46545 7.19359 8.33808L2.00565 3.96713V6.51327C2.00565 7.17345 2.29664 7.80114 2.80342 8.23585L6.8616 11.7221H0V14.1459H7.01295L2.80245 17.7631C2.29566 18.1987 2.00468 18.8264 2.00468 19.4857L2.00565 19.4866Z" fill="#CCCCCC"></path><path d="M18.5351 11.8511L22.7456 8.23394C23.2524 7.79828 23.5424 7.17058 23.5424 6.51136V3.96713L18.3545 8.33426C17.2022 9.46163 16.5548 10.9903 16.5548 12.5839V13.4103C16.5548 15.0039 17.2022 16.5325 18.3545 17.6599L23.5424 22.0299V19.4837C23.5424 18.8236 23.2514 18.1959 22.7456 17.7612L18.6874 14.2749H25.549V11.8511H18.5351Z" fill="#CCCCCC"></path></svg>