<svg width="24" height="24" viewBox="0 0 24 24" fill="none" xmlns="http://www.w3.org/2000/svg">
<path d="M23.8325 20.2766C23.8325 20.5342 23.6434 20.707 23.4196 20.707V20.7054C23.1894 20.707 23.0038 20.5341 23.0038 20.2767C23.0038 20.0193 23.1894 19.847 23.4196 19.847C23.6435 19.8469 23.8325 20.0193 23.8325 20.2766ZM24 20.2766C24 19.9233 23.7255 19.7181 23.4196 19.7181C23.1115 19.7181 22.837 19.9233 22.837 20.2766C22.837 20.6298 23.1116 20.8358 23.4196 20.8358C23.7256 20.8358 24 20.6298 24 20.2766ZM23.3233 20.3239H23.3854L23.5294 20.5768H23.6876L23.5281 20.3132C23.6105 20.3074 23.6783 20.2681 23.6783 20.1571C23.6783 20.0193 23.5832 19.975 23.4222 19.975H23.1893V20.5768H23.3232V20.3239M23.3233 20.222V20.0771H23.4164C23.4671 20.0771 23.5361 20.0812 23.5361 20.143C23.5361 20.2103 23.5004 20.222 23.4407 20.222H23.3233Z" fill="black"/>
<path d="M20.0911 17.1981L20.8148 19.178H19.345L20.0911 17.1981ZM19.3161 16.4273L17.6483 20.6528H18.826L19.0898 19.9062H21.0635L21.3131 20.6528H22.5916L20.9114 16.4267L19.3161 16.4273ZM15.9678 20.6544H17.1626V16.426L15.9676 16.4257L15.9678 20.6544ZM7.67323 16.4257L6.67638 19.7771L5.72146 16.426L4.43228 16.4257L5.7961 20.6544H7.5174L8.89221 16.4257H7.67323ZM12.5028 17.3465H13.0163C13.7613 17.3465 14.2431 17.6809 14.2431 18.5489C14.2431 19.4171 13.7613 19.7517 13.0163 19.7517H12.5028V17.3465ZM11.318 16.4257V20.6544H13.255C14.2871 20.6544 14.624 20.4829 14.9884 20.098C15.2458 19.8278 15.4123 19.2348 15.4123 18.5865C15.4123 17.992 15.2714 17.462 15.0258 17.1318C14.5832 16.5412 13.9457 16.4257 12.9943 16.4257H11.318ZM0 16.4198V20.6544H1.20492V17.4391L2.13853 17.4393C2.44766 17.4393 2.66803 17.5164 2.81689 17.6754C3.0057 17.8765 3.0828 18.2011 3.0828 18.795V20.6544H4.25036V18.3148C4.25036 16.645 3.18605 16.4198 2.14468 16.4198H0ZM9.39507 16.4257L9.39555 20.6544H10.5898V16.4257H9.39507Z" fill="#CCCCCC"/>
<path d="M3.21105 8.00589C3.21105 8.00589 4.74777 5.73857 7.81609 5.504V4.68142C4.41753 4.95436 1.47452 7.83278 1.47452 7.83278C1.47452 7.83278 3.14139 12.6514 7.81609 13.0926V12.2183C4.38557 11.7867 3.21105 8.00589 3.21105 8.00589ZM7.81609 10.4794V11.2802C5.22338 10.8179 4.50371 8.12279 4.50371 8.12279C4.50371 8.12279 5.74857 6.74374 7.81609 6.52011V7.39875C7.81452 7.39875 7.81342 7.39827 7.81213 7.39827C6.72698 7.26805 5.87928 8.28176 5.87928 8.28176C5.87928 8.28176 6.35441 9.98831 7.81609 10.4794ZM7.81609 3.16423V4.68142C7.91585 4.67377 8.01562 4.66729 8.11593 4.66387C11.9797 4.53365 14.4972 7.83278 14.4972 7.83278C14.4972 7.83278 11.6058 11.3487 8.59339 11.3487C8.31731 11.3487 8.05885 11.3231 7.81609 11.2801V12.2183C8.02368 12.2446 8.23892 12.2601 8.46351 12.2601C11.2667 12.2601 13.294 10.8285 15.2569 9.13412C15.5824 9.39477 16.9148 10.0289 17.1887 10.3065C15.3223 11.8691 10.9725 13.1287 8.50646 13.1287C8.26876 13.1287 8.04048 13.1143 7.81609 13.0926V14.411H18.471V3.16423H7.81609ZM7.81609 6.52011V5.504C7.91483 5.4971 8.01432 5.49185 8.11593 5.48864C10.8944 5.40137 12.7172 7.87628 12.7172 7.87628C12.7172 7.87628 10.7484 10.6107 8.63737 10.6107C8.33356 10.6107 8.06124 10.5619 7.81609 10.4794V7.39875C8.89775 7.52945 9.11538 8.00725 9.76567 9.0913L11.212 7.87177C11.212 7.87177 10.1562 6.48712 8.37645 6.48712C8.18299 6.48705 7.99787 6.50064 7.81609 6.52011Z" fill="#CCCCCC"/>
</svg>
