<svg xmlns:xlink="http://www.w3.org/1999/xlink" width="17" height="16" viewBox="0 0 17 16" fill="none" xmlns="http://www.w3.org/2000/svg" role="presentation" class="h-5 w-5 text-fg1"><g clip-path="url(#clip0_1430_1330)" fill="none"><path d="M15.5577 6.54851C15.923 5.45901 15.7972 4.26551 15.2131 3.27451C14.3346 1.75451 12.5686 0.972513 10.8438 1.34051C10.0765 0.481513 8.9741 -0.00698682 7.81838 1.31765e-05C6.05536 -0.00398682 4.49108 1.12401 3.94869 2.79101C2.81611 3.02151 1.8385 3.72601 1.26643 4.72451C0.381394 6.24051 0.583155 8.15151 1.76554 9.45151C1.40026 10.541 1.52605 11.7345 2.1102 12.7255C2.98869 14.2455 4.75473 15.0275 6.47951 14.6595C7.2463 15.5185 8.34919 16.007 9.50492 15.9995C11.2689 16.004 12.8337 14.875 13.3761 13.2065C14.5087 12.976 15.4863 12.2715 16.0584 11.273C16.9424 9.75701 16.7401 7.84751 15.5582 6.54751L15.5577 6.54851ZM9.50592 14.954C8.80001 14.955 8.11624 14.7095 7.57435 14.26C7.599 14.247 7.64177 14.2235 7.66944 14.2065L10.8755 12.3665C11.0395 12.274 11.1401 12.1005 11.1391 11.913V7.42151L12.4941 8.19901C12.5087 8.20601 12.5182 8.22001 12.5203 8.23601V11.9555C12.5182 13.6095 11.1703 14.9505 9.50592 14.954ZM3.02341 12.2025C2.6697 11.5955 2.5424 10.884 2.66366 10.1935C2.68731 10.2075 2.72907 10.233 2.75875 10.25L5.96479 12.09C6.12731 12.1845 6.32856 12.1845 6.49158 12.09L10.4055 9.84401V11.399C10.4066 11.415 10.399 11.4305 10.3864 11.4405L7.14567 13.3C5.70215 14.126 3.85863 13.635 3.02391 12.2025H3.02341ZM2.17963 5.24801C2.53183 4.64001 3.08781 4.17501 3.74995 3.93351C3.74995 3.96101 3.74844 4.00951 3.74844 4.04351V7.72401C3.74743 7.91101 3.84806 8.08451 4.01158 8.17701L7.92554 10.4225L6.57058 11.2C6.55699 11.209 6.53988 11.2105 6.52479 11.204L3.28353 9.34301C1.84303 8.51401 1.34894 6.68251 2.17913 5.24851L2.17963 5.24801ZM13.3122 7.82251L9.39825 5.57651L10.7532 4.79951C10.7668 4.79051 10.7839 4.78901 10.799 4.79551L14.0403 6.65501C15.4833 7.48351 15.9779 9.31801 15.1442 10.752C14.7915 11.359 14.236 11.824 13.5744 12.066V8.27551C13.5759 8.08851 13.4757 7.91551 13.3127 7.82251H13.3122ZM14.6606 5.80551C14.637 5.79101 14.5952 5.76601 14.5655 5.74901L11.3595 3.90901C11.197 3.81451 10.9957 3.81451 10.8327 3.90901L6.91875 6.15501V4.60001C6.91775 4.58401 6.92529 4.56851 6.93787 4.55851L10.1786 2.70051C11.6221 1.87301 13.4677 2.36551 14.2999 3.80051C14.6516 4.40651 14.7789 5.11601 14.6596 5.80551H14.6606ZM6.18215 8.57701L4.82668 7.79951C4.81209 7.79251 4.80253 7.77851 4.80051 7.76251V4.04301C4.80152 2.38701 6.15347 1.04501 7.81988 1.04601C8.52479 1.04601 9.20705 1.29201 9.74894 1.74001C9.72429 1.75301 9.68202 1.77651 9.65385 1.79351L6.44781 3.63351C6.28378 3.72601 6.18315 3.89901 6.18416 4.08651L6.18215 8.57601V8.57701ZM6.91825 7.00001L8.66165 5.99951L10.405 6.99951V9.00001L8.66165 10L6.91825 9.00001V7.00001Z" fill="#CCCCCC"></path></g><defs><clipPath id="clip0_1430_1330"><rect width="16" height="16" fill="currentColor" transform="translate(0.611328)"></rect></clipPath></defs></svg>