<svg xmlns:xlink="http://www.w3.org/1999/xlink" width="17" height="16" viewBox="0 0 17 16" fill="none" xmlns="http://www.w3.org/2000/svg" role="presentation" class="h-5 w-5 text-fg1"><path d="M12.5867 4.26114C12.0115 3.7396 11.3691 3.35055 10.6873 3.08555L11.3298 1.40814C9.0292 0.520104 6.32462 1.08958 4.57674 3.0348C3.8501 3.84391 3.37876 4.79397 3.15431 5.78349C2.67456 7.88941 3.31704 10.187 5.02563 11.7348C5.60078 12.2563 6.24887 12.6482 6.93343 12.9132L6.29095 14.5934C8.58872 15.4758 11.2877 14.9091 13.0328 12.9611C13.7594 12.152 14.2307 11.2048 14.4552 10.2124C14.9349 8.10649 14.2925 5.80887 12.5839 4.26114H12.5867ZM11.2933 11.3767C10.216 12.5777 8.55225 12.9273 7.13263 12.3888C6.70618 12.2253 6.30217 11.9829 5.94306 11.6558C4.38877 10.2491 4.26532 7.84149 5.66531 6.27967C6.74826 5.07306 8.426 4.72349 9.84843 5.27886C10.2665 5.44238 10.662 5.682 11.0155 6.00057C12.5698 7.40734 12.6933 9.81491 11.2933 11.3767Z" fill="#CCCCCC"></path></svg>