<svg xmlns:xlink="http://www.w3.org/1999/xlink" xmlns="http://www.w3.org/2000/svg" width="24" height="24" fill="none" viewBox="4 6 20 20" role="presentation" class="h-5 w-5"><path fill="oklch(0.845 0 0)" d="M23.115 10.896l-3.88-3.88a3.116 3.116 0 0 0-2.204-.913h-5.488c-.827 0-1.62.328-2.204.913l-3.88 3.88a3.116 3.116 0 0 0-.913 2.204v5.488c0 .827.328 1.62.913 2.204l3.88 3.88a3.116 3.116 0 0 0 2.204.913h5.488c.826 0 1.619-.328 2.204-.913l3.88-3.88a3.116 3.116 0 0 0 .913-2.204V13.1c0-.826-.329-1.619-.913-2.204Zm-4.019 8.472c-.392 0-.72-1.148-.808-2.691-.094 2.41-.588 4.249-1.185 4.249-.483 0-.9-1.21-1.09-2.951-.218 3.164-.908 5.476-1.726 5.476s-1.508-2.312-1.725-5.476c-.19 1.742-.607 2.95-1.09 2.95-.597 0-1.092-1.838-1.185-4.248-.089 1.543-.417 2.69-.808 2.69-.46 0-.833-1.577-.833-3.523 0-1.946.373-3.523.833-3.523.392 0 .72 1.147.808 2.69.093-2.41.588-4.248 1.184-4.248.484 0 .9 1.209 1.09 2.95.218-3.163.908-5.476 1.726-5.476s1.508 2.313 1.726 5.476c.19-1.741.607-2.95 1.09-2.95.597 0 1.091 1.838 1.185 4.248.088-1.543.416-2.69.808-2.69.46 0 .833 1.577.833 3.523 0 1.946-.373 3.524-.833 3.524Z"></path></svg>